<svg xmlns="http://www.w3.org/2000/svg" width="3250mm" height="600mm" viewBox="0 0 3250 600">
  <rect x="0" y="0" width="3250" height="600" fill="#FF7FBF"/>
  <svg x="988.72" y="100.00" width="1272.56" height="400.00" viewBox="0 0 4893 1538" preserveAspectRatio="xMidYMid meet">
    <g transform="translate(0.000000,1538.000000) scale(0.100000,-0.100000)"
fill="#ffffff" stroke="none">
<path d="M14080 15169 c-47 -5 -128 -14 -180 -20 -52 -7 -117 -14 -145 -16
-220 -15 -216 -14 -365 -50 -36 -8 -87 -17 -115 -18 -27 -2 -79 -13 -115 -26
-36 -12 -76 -23 -90 -25 -14 -2 -41 -6 -60 -8 -19 -3 -60 -15 -90 -26 -30 -12
-66 -23 -80 -25 -50 -7 -112 -26 -135 -41 -13 -9 -37 -18 -52 -20 -57 -10 -69
-13 -90 -19 -13 -4 -23 -11 -23 -15 0 -9 -50 -31 -59 -26 -10 7 -80 -18 -122
-43 -19 -11 -43 -20 -54 -19 -19 1 -91 -27 -146 -57 -14 -8 -29 -12 -32 -8 -4
3 -25 -7 -48 -23 -23 -16 -52 -29 -65 -29 -13 -1 -44 -16 -68 -33 -24 -17 -46
-29 -49 -25 -8 7 -67 -17 -67 -28 0 -4 -10 -11 -22 -16 -22 -7 -31 -9 -53 -12
-5 0 -23 -12 -39 -26 -16 -14 -32 -25 -35 -26 -3 0 -16 -2 -28 -3 -12 -1 -38
-17 -58 -34 -19 -18 -46 -32 -58 -32 -12 -1 -38 -14 -57 -30 -19 -17 -45 -30
-57 -30 -13 0 -43 -16 -68 -35 -25 -19 -51 -32 -58 -30 -6 3 -46 -22 -87 -56
-41 -33 -80 -57 -87 -55 -7 3 -28 -7 -46 -22 -59 -51 -121 -92 -138 -92 -9 0
-22 -7 -29 -16 -21 -24 -129 -104 -143 -104 -12 -1 -61 -39 -121 -93 -16 -15
-45 -35 -63 -43 -18 -9 -74 -53 -125 -98 -123 -108 -131 -115 -218 -187 -166
-136 -525 -483 -619 -599 -20 -24 -102 -122 -183 -216 -81 -95 -170 -207 -199
-250 -29 -44 -63 -90 -76 -103 -12 -14 -19 -29 -17 -33 3 -5 -21 -42 -54 -83
-33 -40 -70 -93 -81 -116 -11 -24 -38 -70 -60 -102 -23 -32 -41 -60 -41 -63 0
-3 -10 -20 -22 -37 -26 -36 -58 -94 -122 -224 -26 -51 -51 -93 -56 -93 -6 0
-10 -9 -10 -20 0 -15 -7 -20 -28 -20 -29 0 -62 26 -62 49 0 7 -11 22 -25 33
-14 11 -25 26 -25 33 0 7 -10 22 -22 32 -26 20 -98 127 -98 143 0 6 -10 21
-22 34 -32 32 -50 65 -43 77 4 5 -7 25 -24 44 -17 20 -34 48 -37 63 -4 15 -14
36 -24 47 -10 11 -24 38 -31 60 -8 22 -26 60 -41 83 -15 24 -24 50 -21 58 3 7
-6 33 -20 56 -22 38 -37 83 -42 128 -1 8 -11 44 -23 80 -20 65 -37 138 -34
152 1 4 -3 19 -8 34 -46 120 -53 685 -10 789 8 19 15 58 26 139 3 22 14 58 25
80 10 22 19 48 19 57 0 41 23 119 41 140 21 24 20 24 24 55 1 12 17 53 34 90
18 38 35 78 37 89 2 11 12 31 23 45 10 15 33 54 50 88 17 33 44 76 60 94 16
18 46 62 66 97 21 35 55 82 77 105 21 22 59 76 84 119 41 71 45 82 37 115 -7
30 -14 38 -35 40 -32 4 -138 -26 -138 -38 0 -5 -17 -24 -37 -42 -64 -55 -143
-141 -143 -155 0 -7 -11 -19 -25 -25 -14 -6 -25 -17 -25 -24 0 -7 -9 -24 -21
-36 -60 -66 -160 -199 -155 -207 3 -5 -23 -44 -59 -87 -36 -43 -64 -83 -62
-89 2 -5 -11 -32 -30 -59 -18 -26 -30 -52 -28 -57 3 -4 -10 -31 -30 -60 -19
-28 -32 -55 -29 -60 3 -5 -6 -30 -19 -56 -14 -27 -30 -66 -37 -88 -7 -22 -22
-60 -35 -85 -12 -25 -25 -68 -29 -97 -3 -28 -15 -77 -25 -109 -11 -33 -22 -86
-26 -119 -3 -33 -13 -107 -22 -165 -17 -111 -13 -333 7 -455 5 -32 12 -95 15
-140 4 -44 12 -89 19 -100 13 -21 38 -108 34 -122 -3 -14 13 -77 32 -118 9
-22 26 -67 36 -100 10 -33 26 -73 35 -90 9 -16 20 -47 23 -67 4 -23 13 -38 21
-38 14 0 24 -23 30 -63 4 -31 16 -57 26 -57 5 0 15 -13 24 -30 9 -16 13 -30
10 -30 -3 0 1 -13 10 -30 9 -16 19 -30 23 -30 5 0 19 -24 32 -52 13 -29 30
-59 37 -66 7 -7 13 -18 13 -23 0 -6 14 -23 32 -39 17 -16 32 -37 33 -47 0 -10
12 -31 25 -47 14 -16 52 -61 85 -100 34 -39 71 -84 83 -100 12 -15 42 -51 67
-78 56 -62 58 -91 10 -182 -19 -37 -35 -75 -35 -85 0 -10 -13 -38 -30 -62 -16
-24 -30 -52 -30 -62 0 -10 -14 -48 -30 -84 -17 -35 -30 -72 -30 -82 0 -10 -11
-35 -25 -55 -14 -21 -27 -52 -30 -70 -2 -19 -16 -58 -30 -87 -14 -30 -28 -71
-31 -92 -3 -21 -15 -62 -28 -91 -13 -28 -26 -73 -30 -100 -4 -26 -19 -78 -33
-114 -14 -37 -27 -85 -29 -107 -4 -37 -12 -66 -34 -120 -9 -22 -22 -85 -26
-125 -1 -14 -12 -61 -24 -105 -12 -44 -23 -96 -25 -115 -14 -145 -18 -177 -27
-204 -19 -66 -29 -135 -33 -231 -4 -105 -11 -220 -21 -370 -9 -122 -9 -148 0
-310 4 -77 9 -178 11 -225 9 -197 15 -246 40 -355 8 -33 17 -98 20 -145 3 -48
15 -109 27 -140 12 -30 27 -89 34 -130 17 -100 26 -134 34 -140 10 -7 41 -120
41 -147 -1 -13 4 -23 9 -23 14 0 31 -36 34 -75 1 -19 9 -42 18 -52 9 -10 26
-52 39 -93 12 -41 28 -79 34 -85 7 -5 20 -30 29 -54 10 -24 26 -55 37 -69 10
-14 24 -42 29 -63 6 -22 15 -39 20 -39 5 0 16 -13 25 -29 8 -17 26 -42 40 -57
14 -15 24 -32 22 -38 -5 -14 21 -66 32 -66 5 0 25 -28 45 -63 20 -34 52 -80
71 -100 19 -21 35 -41 35 -45 0 -21 428 -435 478 -462 15 -8 65 -41 110 -73
46 -32 86 -56 89 -53 4 3 21 -6 40 -20 39 -29 298 -164 316 -164 7 0 30 -10
52 -22 38 -20 57 -26 116 -33 14 -1 36 -8 49 -15 31 -17 72 -28 160 -45 41 -8
109 -21 150 -30 41 -8 99 -17 129 -20 30 -3 99 -12 153 -20 115 -18 343 -19
513 -4 66 6 145 13 175 15 134 8 190 14 265 29 44 9 118 22 165 31 47 8 122
26 166 40 45 14 85 24 90 23 13 -3 59 9 139 37 39 14 88 27 109 29 22 2 43 10
48 19 5 8 25 18 46 22 20 4 42 11 49 16 7 5 17 7 24 3 6 -4 23 1 37 12 33 23
63 37 78 34 7 -1 47 14 89 34 42 19 81 32 86 29 5 -3 33 8 63 25 29 17 60 31
67 31 8 0 27 11 43 25 31 27 30 26 62 30 12 1 41 16 65 32 24 17 49 28 55 26
15 -5 78 23 94 41 7 9 21 16 31 16 10 0 21 5 24 10 3 6 12 10 20 10 8 0 37 13
65 30 28 16 57 30 65 30 8 0 18 7 23 16 5 8 16 16 25 18 10 1 39 19 66 39 27
21 55 35 62 32 8 -2 32 11 54 30 22 19 46 35 54 35 8 0 31 11 50 24 58 38 125
80 134 82 4 1 10 2 15 3 4 0 25 17 46 36 25 22 46 33 56 30 10 -3 23 2 31 11
19 23 134 104 148 104 6 0 48 29 93 64 44 36 84 64 87 63 7 -2 50 27 99 69 59
48 125 94 137 94 6 0 20 10 32 23 11 12 31 31 44 42 13 11 51 43 84 71 33 28
85 67 115 87 30 20 100 79 155 131 55 53 106 96 113 96 7 0 17 -11 22 -25 10
-27 -2 -86 -39 -185 -12 -30 -21 -65 -21 -77 0 -20 -15 -67 -40 -128 -9 -20
-22 -83 -26 -118 -2 -27 -26 -99 -40 -122 -7 -11 -14 -45 -17 -77 -2 -32 -13
-71 -25 -90 -11 -18 -23 -55 -27 -83 -4 -27 -14 -66 -23 -85 -29 -66 -42 -105
-42 -127 0 -26 -20 -73 -30 -73 -4 0 -10 -12 -13 -27 -16 -80 -27 -124 -35
-140 -23 -45 -42 -95 -42 -112 0 -10 -13 -38 -30 -62 -16 -24 -30 -55 -30 -68
0 -13 -8 -38 -18 -55 -10 -17 -25 -51 -32 -76 -8 -25 -24 -62 -37 -83 -13 -21
-26 -52 -30 -70 -3 -18 -17 -48 -30 -67 -12 -19 -23 -44 -23 -55 0 -11 -8 -33
-18 -50 -10 -16 -24 -46 -32 -65 -19 -50 -48 -109 -75 -155 -14 -22 -29 -51
-35 -65 -40 -93 -121 -257 -170 -345 -18 -33 -49 -91 -68 -130 -19 -38 -45
-83 -58 -98 -13 -16 -21 -33 -18 -38 3 -6 -10 -31 -30 -56 -20 -26 -36 -50
-36 -55 0 -5 -18 -38 -40 -74 -22 -36 -40 -68 -40 -71 0 -3 -11 -16 -25 -29
-14 -13 -25 -21 -25 -18 0 3 -9 0 -20 -6 -19 -10 -104 -14 -500 -24 -63 -2
-162 -6 -220 -10 -217 -14 -406 -28 -445 -32 -44 -5 -168 -12 -310 -18 -76 -4
-287 -22 -465 -41 -25 -3 -81 -8 -125 -10 -135 -9 -157 -12 -245 -30 -107 -22
-119 -24 -210 -30 -137 -9 -254 -26 -320 -47 -19 -6 -57 -12 -85 -14 -55 -3
-163 -25 -210 -44 -16 -7 -52 -14 -80 -16 -61 -4 -135 -21 -152 -35 -6 -6 -29
-13 -50 -15 -85 -11 -90 -12 -217 -50 -43 -13 -82 -21 -86 -19 -4 2 -40 -9
-79 -26 -40 -17 -94 -33 -119 -35 -26 -3 -62 -14 -82 -25 -19 -12 -50 -23 -70
-25 -19 -3 -47 -7 -63 -8 -15 -2 -40 -12 -54 -22 -28 -17 -79 -33 -124 -38
-14 -1 -39 -13 -55 -25 -29 -21 -47 -26 -114 -35 -14 -2 -43 -16 -65 -30 -21
-15 -45 -24 -52 -22 -14 6 -31 0 -121 -40 -29 -13 -60 -24 -70 -24 -10 0 -27
-7 -39 -15 -25 -18 -232 -105 -249 -105 -6 0 -31 -13 -55 -30 -24 -16 -51 -30
-60 -30 -8 0 -36 -14 -62 -31 -26 -17 -51 -28 -57 -24 -6 4 -32 -9 -58 -27
-26 -19 -55 -33 -65 -30 -9 2 -35 -12 -58 -31 -24 -22 -47 -33 -58 -30 -11 3
-33 -8 -55 -28 -21 -18 -45 -33 -54 -34 -15 -1 -98 -49 -127 -72 -37 -30 -189
-127 -230 -147 -17 -8 -42 -25 -55 -38 -14 -13 -45 -38 -70 -56 -137 -99 -183
-138 -265 -224 -117 -122 -145 -154 -145 -165 0 -8 -88 -119 -132 -167 -10
-11 -18 -26 -18 -33 0 -8 -11 -31 -25 -51 -14 -20 -30 -55 -36 -77 -6 -22 -18
-48 -27 -58 -16 -18 -34 -102 -54 -260 -9 -67 -9 -106 0 -160 26 -159 40 -218
55 -230 8 -7 20 -30 26 -53 6 -22 21 -49 33 -61 13 -11 46 -49 73 -83 53 -66
203 -190 230 -190 8 0 20 -12 25 -26 6 -14 15 -22 20 -19 12 7 49 -14 81 -46
10 -10 30 -19 43 -19 14 0 55 -14 92 -31 37 -17 76 -32 88 -33 11 -2 50 -13
86 -26 36 -13 74 -25 85 -26 11 -2 79 -14 150 -27 165 -31 190 -32 540 -31
270 1 336 6 504 36 35 6 82 12 103 14 113 11 150 18 207 39 40 14 68 20 153
30 15 2 48 13 72 25 25 12 64 23 88 25 64 6 119 20 153 37 17 9 53 19 80 24
28 4 68 16 89 27 38 20 49 23 109 31 15 2 38 10 50 18 12 7 49 22 82 32 33 10
80 26 105 36 73 30 109 42 117 42 4 -1 28 11 52 25 24 14 56 26 71 27 15 1 42
14 60 30 18 15 39 25 48 21 8 -3 37 9 65 27 27 17 57 33 66 34 34 4 79 23 119
48 23 14 48 23 56 20 8 -3 23 3 33 13 34 33 70 52 80 42 7 -7 25 2 52 26 24
19 50 35 59 35 10 0 40 16 67 34 33 23 54 31 61 25 7 -6 16 -4 24 6 22 26 71
58 94 60 35 4 36 4 36 20 0 8 8 15 18 15 10 0 33 14 51 31 19 17 45 32 58 33
13 2 44 18 68 36 25 19 53 34 63 35 10 1 36 15 58 32 21 17 66 45 98 63 33 17
74 45 90 61 17 16 37 28 46 27 15 -3 62 28 128 84 18 15 39 28 47 28 8 0 62
36 120 80 58 44 110 80 115 80 4 0 35 23 67 50 32 28 75 59 96 69 21 10 48 28
60 40 114 109 219 192 264 211 29 12 590 560 764 746 102 110 139 151 161 184
10 14 27 36 38 50 11 14 56 67 99 119 44 52 82 106 85 122 3 16 39 61 90 113
74 75 88 85 113 81 15 -2 147 -7 293 -10 372 -8 909 -24 945 -29 37 -5 148
-14 275 -21 52 -3 119 -10 149 -16 30 -5 76 -9 103 -9 26 0 92 -7 146 -14 53
-8 124 -17 157 -20 80 -7 285 -35 309 -42 10 -4 30 -8 45 -10 50 -6 96 -14
111 -17 8 -2 38 -7 65 -12 28 -4 58 -11 67 -16 9 -5 34 -11 55 -14 60 -9 75
-12 128 -25 56 -13 208 -17 243 -6 35 11 45 39 31 89 -14 53 -78 117 -117 117
-15 0 -36 6 -47 13 -29 20 -114 47 -147 47 -16 0 -54 9 -85 20 -31 11 -104 27
-162 35 -58 9 -122 21 -141 27 -43 14 -42 14 -170 32 -58 8 -159 24 -225 35
-231 39 -482 71 -680 86 -110 8 -209 17 -220 20 -26 6 -371 26 -505 30 -58 2
-179 4 -270 6 -127 2 -171 6 -192 18 -16 8 -28 21 -28 27 0 14 86 155 99 164
5 3 19 28 31 55 12 28 27 57 35 65 7 8 29 46 49 83 19 37 48 84 63 103 15 20
27 44 28 54 1 10 14 32 28 50 15 17 28 36 28 41 1 5 3 14 4 19 1 6 3 15 4 20
0 6 11 21 24 33 23 21 79 119 138 238 15 30 34 61 43 68 9 7 21 31 26 53 6 21
20 48 30 58 10 10 24 37 29 58 6 21 22 51 36 66 13 14 29 44 35 66 6 22 16 43
24 47 7 4 20 28 30 52 9 24 26 55 37 69 10 14 24 43 30 65 6 23 17 46 24 52 6
5 20 30 29 55 10 25 24 52 32 60 7 9 20 36 29 60 9 24 22 51 29 60 7 8 19 32
25 52 7 20 21 48 31 61 11 13 24 44 29 68 5 24 16 48 24 54 8 5 22 36 31 67 9
31 20 58 25 60 10 4 76 160 98 233 8 28 21 55 28 60 7 6 17 29 21 50 9 54 32
118 44 125 5 3 14 30 20 60 6 29 21 76 34 104 13 28 29 80 36 116 8 36 19 70
26 75 8 6 15 26 18 45 6 52 23 121 41 163 9 21 17 55 20 75 2 20 13 73 25 117
22 81 34 146 44 245 4 30 15 89 26 130 10 41 21 102 24 135 10 110 17 169 22
176 10 16 5 230 -6 271 -7 23 -13 53 -15 65 -1 13 -14 40 -27 60 -14 21 -29
50 -32 66 -4 18 -13 27 -26 27 -11 0 -20 7 -20 15 0 9 -13 24 -30 33 -16 9
-30 22 -30 29 0 7 -19 17 -42 24 -24 6 -63 18 -87 26 -70 24 -116 24 -189 1
-37 -12 -75 -22 -84 -23 -9 -1 -34 -14 -56 -28 -21 -15 -47 -27 -58 -27 -12 0
-29 -10 -40 -21 -10 -12 -35 -32 -54 -44 -19 -13 -73 -59 -119 -104 -46 -44
-87 -81 -92 -81 -5 0 -9 -6 -9 -13 0 -8 -17 -32 -37 -53 -34 -36 -60 -72 -170
-240 -18 -28 -33 -56 -33 -64 0 -7 -11 -27 -24 -45 -13 -17 -34 -53 -47 -81
-13 -27 -29 -55 -36 -62 -7 -7 -13 -23 -13 -35 0 -12 -14 -42 -30 -67 -16 -25
-30 -52 -30 -61 0 -9 -13 -36 -30 -60 -16 -24 -30 -51 -30 -60 0 -9 -13 -35
-30 -57 -16 -23 -30 -47 -30 -53 0 -56 -488 -559 -566 -583 -12 -4 -21 -14
-20 -24 1 -11 -8 -18 -24 -20 -14 -2 -38 -16 -55 -31 -39 -35 -116 -91 -127
-91 -9 0 -108 -71 -142 -102 -11 -10 -28 -18 -38 -18 -9 0 -32 -13 -50 -28
-33 -29 -61 -46 -126 -76 -18 -8 -49 -29 -69 -45 -20 -17 -40 -28 -45 -25 -9
6 -68 -27 -68 -37 0 -8 -35 -22 -61 -24 -9 -1 -34 -16 -56 -34 -22 -18 -46
-29 -54 -26 -9 3 -32 -6 -53 -20 -21 -14 -59 -33 -85 -42 -25 -8 -68 -26 -96
-38 -27 -13 -62 -26 -77 -29 -15 -3 -33 -12 -40 -19 -22 -22 -58 -38 -69 -32
-5 4 -15 3 -22 -3 -16 -12 -140 -57 -150 -54 -11 3 -109 -29 -134 -45 -12 -8
-41 -16 -64 -18 -24 -3 -64 -14 -89 -26 -45 -22 -55 -24 -140 -33 -25 -2 -79
-14 -120 -26 -93 -26 -97 -27 -365 -53 -324 -32 -472 -35 -674 -17 -107 10
-304 44 -356 61 -47 16 -56 18 -130 35 -38 8 -91 26 -117 39 -26 14 -51 24
-55 23 -13 -3 -56 14 -70 28 -8 7 -31 18 -52 24 -21 5 -50 21 -66 34 -15 13
-40 26 -54 29 -15 3 -42 19 -61 36 -19 17 -42 31 -51 31 -23 0 -110 68 -199
155 -14 14 -31 25 -38 25 -6 0 -17 9 -24 21 -7 11 -27 26 -45 34 -20 8 -31 20
-30 32 1 10 -5 18 -13 18 -24 1 -40 15 -40 34 0 10 -11 26 -25 35 -14 9 -25
22 -25 28 0 6 -11 23 -24 37 -13 14 -40 44 -61 66 -20 22 -39 52 -42 68 -3 15
-14 32 -23 37 -10 5 -20 20 -24 33 -3 13 -16 35 -30 48 -13 13 -29 43 -35 65
-6 22 -20 51 -31 64 -19 22 -24 35 -21 53 1 4 -15 42 -35 83 -20 41 -37 86
-38 98 -2 13 -12 39 -23 57 -11 19 -24 52 -28 74 -11 56 -10 53 -35 128 -23
69 -25 84 -35 177 -3 30 -10 69 -15 85 -13 47 -28 152 -36 250 -3 50 -8 104
-9 120 -17 184 -13 500 9 760 7 81 29 230 37 245 4 9 10 49 14 90 10 119 24
206 39 247 8 21 19 74 25 117 6 44 22 114 35 155 13 42 29 103 35 135 6 32 17
67 26 76 8 9 17 30 18 46 5 39 27 105 43 129 8 11 14 31 14 46 0 38 25 116 44
134 9 9 16 26 16 38 0 34 28 119 46 138 8 9 17 27 18 40 6 49 19 79 32 79 8 0
14 6 14 14 0 27 34 117 74 199 37 73 44 82 72 85 20 2 36 -4 49 -18 10 -11 24
-20 30 -20 7 0 35 -15 61 -33 54 -36 274 -150 314 -162 14 -4 37 -16 52 -26
14 -11 34 -19 45 -19 10 0 38 -14 62 -30 24 -16 47 -27 52 -24 5 3 33 -8 62
-24 49 -28 90 -42 129 -47 10 -1 26 -9 35 -18 10 -8 32 -18 48 -22 40 -9 167
-56 181 -66 6 -5 14 -6 17 -3 7 7 105 -24 132 -42 11 -8 33 -14 50 -14 16 0
57 -12 90 -26 33 -14 71 -27 85 -30 60 -9 79 -13 145 -32 90 -26 137 -36 152
-33 7 1 36 -5 65 -14 45 -14 130 -31 238 -49 151 -25 286 -45 335 -50 328 -33
422 -38 790 -38 336 0 471 6 680 27 22 2 92 7 155 10 105 5 204 18 334 45 27
5 72 12 100 15 64 5 188 29 204 39 12 7 31 10 137 20 33 3 69 10 80 15 31 13
118 39 135 40 42 3 81 12 143 36 37 14 77 25 88 25 11 0 46 12 77 26 31 14 72
28 90 29 18 2 43 10 55 18 35 22 109 49 144 52 18 2 40 10 48 19 9 9 28 18 43
22 15 3 35 9 44 14 10 6 24 7 32 4 7 -3 20 3 27 13 15 21 76 49 86 40 7 -8 63
21 63 33 0 10 39 25 58 21 7 -1 32 12 54 28 23 17 52 31 64 31 11 0 40 15 64
34 23 18 50 32 59 29 9 -2 34 12 55 32 28 24 46 33 59 29 12 -4 28 3 45 18 37
34 120 88 136 88 7 0 21 10 32 21 23 26 129 99 143 99 9 0 43 28 141 116 25
23 79 66 120 97 151 111 451 445 561 622 25 41 53 83 63 94 9 10 21 35 27 55
5 20 18 44 28 54 23 22 87 157 96 200 4 18 13 36 20 38 16 6 26 28 31 68 2 16
15 54 29 84 14 31 27 70 30 86 2 17 15 67 28 111 13 44 28 109 31 145 4 36 10
79 13 95 12 76 14 336 4 476 -17 219 -19 232 -47 349 -15 58 -27 114 -29 125
-5 38 -18 80 -37 117 -11 21 -21 49 -22 62 -2 14 -10 35 -18 48 -8 13 -22 46
-32 73 -11 28 -24 57 -31 65 -7 8 -20 31 -28 50 -8 19 -26 48 -41 63 -14 15
-26 39 -26 51 0 14 -10 30 -25 40 -14 9 -25 21 -25 27 0 6 -18 31 -40 56 -22
25 -40 52 -40 60 0 9 -6 13 -14 10 -16 -7 -50 38 -41 53 3 6 -2 10 -12 10 -24
0 -43 19 -43 42 0 10 -8 21 -17 25 -10 3 -29 17 -43 30 -38 37 -189 153 -199
153 -5 0 -14 7 -21 16 -8 8 -27 21 -44 28 -17 8 -46 28 -65 45 -19 17 -42 31
-50 31 -9 0 -36 14 -60 30 -24 17 -51 30 -59 30 -8 0 -34 11 -56 24 -23 13
-54 26 -70 30 -16 4 -41 16 -54 27 -14 10 -32 19 -41 19 -18 0 -102 31 -145
54 -16 8 -55 18 -85 22 -31 4 -72 15 -91 25 -19 9 -71 23 -115 29 -44 6 -93
17 -109 23 -31 12 -33 12 -106 22 -249 34 -367 47 -490 54 -190 10 -593 10
-700 0z m795 -299 c66 -5 134 -14 150 -19 17 -5 53 -12 80 -16 58 -7 118 -22
160 -40 17 -7 53 -16 80 -20 28 -4 70 -17 95 -30 25 -13 65 -29 90 -36 25 -7
64 -23 87 -37 23 -13 47 -21 53 -17 6 4 32 -10 59 -30 27 -19 53 -34 58 -33
12 3 51 -20 115 -69 31 -24 61 -42 66 -41 22 7 248 -198 378 -343 98 -109 112
-126 131 -167 9 -20 22 -44 28 -52 27 -33 95 -170 95 -190 0 -11 9 -34 21 -49
11 -16 22 -41 25 -57 7 -58 16 -99 24 -119 33 -77 43 -180 42 -425 -2 -172 -5
-206 -37 -345 -9 -38 -20 -90 -25 -115 -6 -25 -15 -56 -21 -70 -31 -67 -39
-88 -44 -121 -3 -21 -12 -42 -20 -49 -7 -6 -17 -24 -20 -40 -3 -15 -19 -48
-34 -72 -16 -25 -32 -54 -35 -66 -4 -11 -22 -39 -41 -63 -18 -24 -32 -46 -29
-50 2 -4 -3 -12 -11 -19 -8 -7 -15 -17 -15 -22 0 -5 -20 -36 -45 -68 -25 -32
-45 -63 -45 -67 0 -5 -11 -20 -25 -33 -14 -13 -25 -28 -25 -34 0 -18 -497
-506 -514 -506 -9 0 -19 -7 -22 -15 -3 -8 -15 -17 -25 -20 -19 -6 -93 -64
-137 -106 -12 -12 -31 -23 -41 -24 -10 0 -53 -29 -96 -63 -43 -34 -82 -62 -88
-62 -5 0 -25 -11 -44 -26 -18 -14 -49 -32 -68 -40 -19 -8 -35 -19 -35 -24 0
-6 -8 -10 -18 -10 -10 0 -41 -16 -68 -35 -27 -19 -56 -35 -64 -35 -8 0 -35
-14 -59 -30 -24 -17 -51 -30 -60 -30 -9 0 -34 -11 -56 -25 -22 -13 -46 -25
-52 -25 -7 0 -34 -13 -60 -28 -27 -16 -68 -35 -93 -42 -25 -8 -64 -24 -87 -37
-23 -13 -53 -23 -66 -23 -13 0 -32 -8 -43 -19 -29 -26 -63 -43 -74 -36 -5 3
-44 -10 -86 -30 -43 -19 -82 -34 -88 -33 -20 3 -70 -13 -110 -34 -22 -12 -51
-23 -65 -25 -14 -2 -41 -5 -59 -7 -18 -2 -43 -11 -56 -19 -31 -20 -100 -39
-157 -43 -25 -1 -63 -10 -85 -19 -39 -17 -62 -22 -119 -30 -69 -9 -99 -16
-153 -31 -58 -18 -70 -20 -157 -28 -27 -3 -95 -15 -150 -27 -55 -12 -111 -22
-125 -21 -14 0 -32 -4 -42 -9 -10 -6 -19 -5 -23 1 -4 6 -11 7 -17 4 -6 -4 -52
-8 -102 -9 -50 -1 -138 -8 -196 -15 -100 -11 -706 -9 -785 3 -16 3 -88 10
-160 16 -71 6 -168 18 -215 27 -93 18 -97 18 -217 34 -45 6 -120 21 -165 34
-46 13 -110 29 -143 36 -33 7 -64 17 -70 21 -5 4 -28 10 -49 13 -70 11 -90 17
-131 35 -52 24 -106 41 -131 41 -11 0 -29 6 -40 14 -11 8 -53 24 -94 37 -41
12 -86 30 -99 41 -13 10 -32 18 -43 18 -22 0 -56 16 -76 37 -7 7 -22 13 -33
13 -19 0 -299 137 -309 151 -3 4 -30 18 -60 31 -30 14 -61 33 -69 42 -8 9 -28
24 -45 32 -17 8 -47 25 -66 39 -19 13 -50 35 -68 47 -75 52 -82 60 -82 86 0
15 12 45 28 67 27 40 49 79 107 192 17 32 32 60 35 63 7 7 30 47 62 109 15 30
37 63 48 73 11 10 29 38 39 62 11 24 38 65 59 92 21 27 47 67 57 89 11 22 22
42 25 45 28 25 110 136 110 149 0 10 32 55 70 102 39 46 79 102 90 124 11 22
45 69 76 105 83 97 119 141 123 152 5 14 33 48 111 133 161 175 210 233 210
246 0 5 5 9 10 9 6 0 14 8 18 18 11 26 87 107 292 314 102 103 201 198 221
212 49 33 201 164 299 258 56 52 122 103 136 103 7 0 59 40 115 88 57 48 111
87 122 87 10 0 50 27 90 60 39 33 77 58 84 56 7 -3 30 9 51 27 88 72 116 92
129 89 7 -2 35 16 62 39 28 22 54 38 59 35 5 -3 15 1 22 9 15 18 432 225 453
225 9 0 19 5 22 10 12 19 84 50 90 40 4 -6 27 4 56 25 27 20 53 34 58 31 5 -4
39 8 76 25 37 17 82 32 101 33 18 2 44 11 58 20 27 17 110 48 123 45 17 -4 89
15 123 32 19 10 58 20 87 23 29 2 56 7 61 10 5 3 22 8 38 11 16 3 54 12 84 20
30 9 95 18 144 20 49 3 93 8 98 11 5 3 46 8 91 11 45 3 107 11 137 18 65 15
397 12 585 -5z m-1554 -11405 c22 -4 39 -12 39 -20 0 -7 -27 -46 -60 -86 -93
-114 -134 -164 -150 -189 -46 -68 -78 -107 -186 -226 -65 -71 -148 -164 -184
-204 -78 -89 -166 -176 -240 -238 -30 -26 -89 -79 -130 -118 -95 -91 -194
-175 -290 -246 -70 -52 -119 -94 -180 -153 -14 -14 -33 -25 -43 -25 -16 0 -73
-42 -145 -107 -14 -13 -29 -23 -33 -23 -11 0 -96 -56 -173 -115 -33 -25 -65
-45 -70 -45 -6 0 -28 -16 -50 -34 -21 -19 -64 -47 -95 -62 -31 -15 -73 -43
-94 -62 -21 -18 -45 -31 -52 -28 -7 2 -19 -2 -25 -10 -7 -8 -19 -14 -26 -14
-8 0 -14 -4 -14 -9 0 -5 -17 -16 -37 -25 -21 -9 -69 -36 -108 -61 -38 -24 -77
-44 -86 -45 -9 0 -33 -13 -54 -30 -36 -28 -49 -34 -68 -31 -5 1 -27 -12 -50
-29 -22 -16 -49 -30 -60 -30 -10 0 -38 -14 -61 -31 -37 -26 -55 -34 -87 -38
-3 -1 -14 -9 -25 -19 -23 -21 -54 -36 -71 -33 -7 1 -48 -15 -90 -36 -43 -21
-82 -39 -88 -39 -24 -4 -55 -17 -55 -24 0 -11 -50 -31 -61 -24 -5 3 -26 -4
-47 -16 -20 -12 -63 -31 -95 -41 -31 -10 -77 -30 -100 -44 -24 -14 -47 -22
-50 -18 -4 3 -38 -8 -75 -26 -38 -17 -86 -33 -108 -35 -21 -2 -64 -15 -94 -28
-31 -14 -78 -28 -105 -32 -28 -4 -68 -17 -90 -28 -22 -11 -51 -22 -65 -24 -14
-2 -41 -5 -60 -8 -19 -3 -60 -15 -90 -26 -30 -12 -77 -23 -105 -25 -27 -1 -63
-6 -80 -9 -16 -4 -50 -12 -75 -17 -25 -6 -56 -15 -70 -21 -14 -5 -54 -12 -90
-13 -36 -2 -128 -11 -205 -20 -77 -9 -194 -15 -260 -14 -167 3 -377 34 -437
64 -26 14 -53 23 -60 20 -15 -6 -78 30 -78 44 0 5 -14 14 -30 20 -18 6 -34 21
-40 37 -6 16 -16 24 -24 21 -17 -7 -36 12 -36 35 0 10 -4 18 -10 18 -15 0 -61
78 -86 147 -20 53 -23 77 -20 185 2 96 8 134 23 173 12 28 28 75 37 105 17 55
64 138 93 161 8 7 19 22 24 34 23 48 41 71 130 162 100 102 236 223 251 223 5
0 57 41 115 90 66 56 115 90 129 90 13 0 27 6 31 13 17 25 127 108 139 103 7
-3 23 6 36 18 13 13 42 34 65 46 23 12 47 28 53 36 7 7 16 11 21 8 5 -2 32 10
61 29 29 18 58 32 63 30 6 -2 25 10 43 27 18 16 50 34 72 40 22 6 48 20 59 31
10 11 31 22 47 24 16 2 31 4 34 4 3 1 18 12 34 26 31 27 30 26 63 30 13 1 41
15 64 31 22 15 49 28 59 29 11 1 38 14 60 30 23 16 49 30 58 31 47 8 79 19
111 41 20 13 43 22 52 20 10 -3 32 4 51 16 39 24 126 57 150 57 9 0 21 6 25
13 10 16 69 41 81 33 4 -3 22 3 38 13 36 21 134 54 142 47 2 -3 29 8 58 24 29
16 79 34 110 39 31 6 62 15 68 20 17 15 105 43 115 37 4 -3 44 10 89 29 44 18
82 31 85 28 8 -7 117 17 117 27 0 10 78 29 145 35 48 4 99 16 156 37 14 5 44
11 65 13 21 3 59 7 84 10 46 5 163 25 260 44 30 6 78 13 105 15 28 2 79 9 115
15 86 13 232 31 300 36 77 6 168 15 215 20 188 21 659 50 959 59 76 3 140 6
141 8 7 7 149 9 186 3z"/>
<path d="M19930 12747 c-48 -25 -120 -48 -129 -43 -5 4 -22 -4 -38 -17 -36
-30 -73 -50 -80 -43 -3 3 -22 -7 -42 -23 -20 -15 -60 -42 -90 -59 -72 -41
-211 -163 -329 -290 -87 -95 -115 -128 -147 -183 -6 -9 -32 -45 -58 -80 -27
-35 -68 -95 -92 -134 -25 -38 -48 -74 -53 -80 -4 -5 -14 -25 -21 -43 -8 -18
-29 -52 -47 -75 -19 -23 -34 -49 -34 -58 0 -9 -8 -27 -18 -40 -27 -36 -138
-229 -156 -272 -8 -21 -22 -44 -30 -53 -9 -8 -19 -30 -25 -49 -5 -18 -21 -49
-35 -68 -14 -19 -26 -43 -26 -53 0 -11 -13 -41 -30 -67 -16 -26 -30 -51 -30
-56 0 -4 -13 -28 -30 -52 -16 -24 -30 -53 -30 -65 0 -11 -13 -38 -30 -60 -16
-21 -30 -46 -30 -55 0 -8 -11 -30 -25 -49 -14 -19 -30 -52 -36 -74 -6 -22 -22
-56 -35 -75 -13 -20 -24 -39 -24 -43 0 -4 -13 -29 -30 -55 -16 -26 -30 -55
-30 -65 0 -10 -11 -39 -25 -65 -40 -76 -95 -199 -95 -211 0 -7 -13 -34 -30
-60 -16 -27 -30 -58 -30 -68 0 -10 -14 -39 -30 -63 -16 -24 -27 -47 -24 -52 6
-11 -20 -61 -40 -78 -9 -8 -16 -25 -16 -39 0 -14 -11 -42 -25 -63 -14 -20 -28
-49 -31 -64 -3 -15 -18 -55 -34 -88 -17 -32 -30 -66 -30 -74 0 -9 -14 -39 -30
-68 -17 -30 -30 -57 -29 -62 4 -15 -13 -63 -22 -63 -5 0 -9 -6 -9 -14 0 -7 -7
-27 -15 -42 -8 -16 -15 -37 -15 -47 0 -18 -17 -53 -37 -75 -7 -7 -13 -26 -13
-41 0 -15 -16 -59 -35 -98 -19 -39 -35 -80 -35 -90 0 -10 -9 -32 -19 -50 -11
-17 -25 -51 -31 -75 -7 -23 -23 -64 -36 -90 -13 -26 -26 -63 -28 -81 -3 -19
-17 -59 -31 -88 -14 -30 -28 -70 -31 -89 -2 -19 -13 -46 -23 -60 -10 -14 -25
-54 -34 -89 -9 -35 -23 -74 -32 -87 -8 -13 -20 -47 -26 -76 -6 -29 -20 -68
-31 -87 -10 -19 -23 -56 -28 -83 -6 -27 -20 -71 -33 -96 -13 -26 -27 -68 -30
-95 -4 -26 -15 -67 -26 -90 -11 -24 -23 -68 -27 -98 -3 -30 -13 -64 -20 -76
-8 -12 -14 -31 -14 -41 0 -10 -5 -23 -10 -28 -6 -6 -13 -28 -15 -50 -8 -56
-25 -114 -41 -139 -8 -13 -14 -27 -13 -31 6 -24 -33 -174 -51 -199 -4 -5 -11
-37 -15 -70 -4 -33 -18 -83 -31 -111 -13 -28 -26 -78 -29 -110 -7 -69 -13 -94
-30 -114 -7 -8 -20 -62 -29 -120 -8 -58 -23 -141 -31 -185 -20 -109 -25 -178
-26 -400 -1 -198 4 -251 28 -298 8 -16 20 -59 27 -97 8 -38 23 -81 35 -96 11
-15 21 -36 21 -48 1 -24 22 -56 37 -56 10 0 70 -87 85 -123 9 -22 18 -31 78
-78 76 -61 158 -104 245 -129 164 -48 175 -49 349 -46 179 3 182 4 286 29 36
9 85 19 110 22 25 4 66 17 91 30 26 13 49 22 52 19 2 -3 28 9 56 26 29 16 56
30 62 30 6 0 31 16 56 35 25 19 53 35 61 35 8 0 39 21 69 48 30 26 74 61 98
77 56 40 119 94 208 181 70 68 157 167 157 178 0 3 8 14 18 24 75 81 162 197
162 219 0 6 3 13 8 15 11 4 75 97 92 133 8 17 25 43 38 59 13 16 33 49 44 73
11 23 24 43 28 43 10 0 10 10 13 -215 2 -99 9 -209 16 -245 15 -73 18 -88 26
-146 3 -23 17 -64 30 -93 14 -29 27 -70 29 -92 3 -24 13 -49 25 -60 11 -10 25
-37 31 -59 6 -22 19 -44 29 -50 10 -5 25 -27 34 -48 15 -38 65 -102 79 -102 9
0 103 -65 135 -93 12 -11 32 -21 45 -23 13 -2 54 -13 93 -24 83 -24 206 -22
300 5 33 9 71 18 85 20 38 4 38 4 57 24 10 10 36 24 58 30 22 6 57 22 77 36
20 14 44 25 52 25 8 0 21 8 28 18 24 33 248 222 264 222 26 0 284 275 284 302
0 5 38 48 85 96 81 85 155 174 155 188 0 7 17 29 109 139 32 39 62 81 66 95 4
13 29 51 55 83 26 32 54 71 61 85 31 61 108 162 122 162 9 0 -24 -240 -63
-454 -16 -90 -19 -144 -16 -310 2 -117 8 -216 15 -236 6 -19 20 -73 31 -120
11 -47 29 -97 40 -112 11 -15 20 -31 20 -36 0 -8 10 -22 59 -80 47 -54 212
-156 274 -168 10 -1 32 -7 50 -13 82 -25 119 -30 217 -29 98 2 192 16 221 33
7 5 22 9 33 11 51 8 101 24 111 36 14 18 71 49 78 42 3 -3 15 3 27 13 73 59
182 153 223 192 26 25 47 40 47 33 0 -6 7 -9 15 -6 17 7 21 -11 5 -21 -6 -3
-42 -72 -81 -152 -67 -139 -81 -192 -49 -185 8 2 29 5 45 7 17 2 55 8 85 13
30 5 64 10 75 10 108 3 297 14 325 18 19 4 55 8 80 9 46 2 90 19 90 34 0 10
38 24 60 22 8 -1 26 18 39 41 13 24 39 66 56 93 18 28 36 64 39 81 4 18 16 40
26 49 11 10 27 38 37 64 9 25 27 56 40 68 13 12 23 30 23 40 0 10 10 34 22 53
26 39 53 90 117 211 24 46 49 91 56 99 7 8 16 26 20 40 4 14 20 42 36 62 16
20 42 61 57 90 39 72 95 165 129 213 15 22 38 57 50 78 11 21 43 68 70 105 27
37 60 85 73 107 14 22 48 67 76 101 28 33 63 78 76 100 14 21 35 48 47 58 11
11 21 23 21 28 0 5 49 63 109 130 61 66 116 134 124 150 15 30 216 267 252
297 11 9 43 41 71 72 110 122 520 491 564 507 8 3 34 22 58 43 24 21 66 50 95
64 29 15 73 43 98 61 25 18 49 31 52 27 4 -3 23 3 44 13 28 14 60 19 116 19
70 0 81 -3 98 -23 16 -21 18 -36 14 -129 -3 -64 -12 -120 -21 -142 -9 -20 -22
-51 -30 -69 -8 -18 -14 -42 -14 -53 0 -11 -21 -64 -46 -117 -74 -154 -287
-579 -334 -667 -59 -112 -59 -111 -146 -290 -42 -88 -81 -162 -85 -165 -4 -3
-17 -27 -28 -54 -12 -26 -30 -59 -41 -73 -11 -14 -20 -33 -20 -42 0 -9 -17
-52 -38 -96 -21 -44 -44 -96 -52 -115 -7 -19 -18 -41 -23 -48 -5 -7 -12 -28
-14 -48 -2 -19 -14 -58 -27 -87 -13 -29 -31 -97 -41 -152 -10 -55 -22 -105
-26 -111 -11 -14 -18 -104 -19 -234 -1 -103 10 -167 30 -180 5 -3 14 -29 19
-57 7 -32 20 -61 36 -77 14 -14 25 -33 25 -44 0 -22 70 -92 93 -92 9 0 26 -9
36 -19 24 -24 56 -42 84 -46 72 -12 71 -12 95 38 13 27 31 81 41 122 11 41 28
90 40 108 12 19 21 45 21 57 0 29 100 236 145 302 19 26 36 61 40 78 4 16 14
36 24 42 10 7 23 29 30 48 6 19 23 51 37 72 14 20 27 42 28 50 2 15 26 61 35
68 9 7 75 109 91 140 7 14 30 46 52 71 21 26 50 69 66 97 15 27 45 74 68 103
22 30 48 68 57 84 9 17 32 50 51 75 20 25 59 79 87 120 29 41 78 104 111 140
32 36 58 68 58 73 0 16 144 195 190 237 9 9 28 34 42 55 14 22 47 63 74 92 62
66 75 81 94 109 46 68 506 511 543 523 7 2 23 15 37 30 33 34 149 123 175 135
11 5 29 10 39 11 11 1 27 11 36 22 21 26 58 46 71 38 5 -4 25 5 44 19 36 28
146 56 218 56 48 0 100 -27 118 -62 28 -52 14 -174 -31 -266 -16 -34 -29 -66
-29 -70 3 -19 -3 -33 -26 -58 -14 -15 -28 -39 -32 -53 -3 -14 -24 -51 -45 -82
-21 -31 -45 -74 -54 -95 -9 -21 -29 -54 -45 -73 -16 -20 -29 -43 -29 -53 0 -9
-10 -29 -23 -45 -28 -34 -205 -380 -309 -603 -67 -142 -77 -166 -83 -193 -3
-16 -17 -52 -30 -80 -14 -28 -25 -60 -25 -72 0 -11 -7 -45 -15 -75 -9 -30 -20
-71 -26 -90 -5 -19 -12 -55 -14 -80 -39 -355 -44 -483 -24 -581 6 -30 12 -79
14 -111 2 -31 13 -75 25 -99 12 -23 28 -59 35 -79 19 -55 92 -146 149 -187 28
-21 55 -36 59 -35 5 1 30 -13 57 -33 26 -19 55 -35 65 -35 9 0 31 -6 48 -14
84 -37 123 -45 242 -45 171 0 218 7 303 46 18 8 38 12 45 10 7 -2 24 2 40 10
15 7 27 11 27 9 0 -5 130 62 148 76 7 6 26 18 42 27 16 9 57 40 89 69 33 28
65 52 72 52 15 0 12 -3 199 182 80 79 161 165 180 191 19 27 53 72 76 100 22
29 53 74 68 100 15 26 31 47 35 47 4 0 14 12 22 27 8 16 22 36 31 47 9 10 29
43 43 74 15 30 42 73 61 95 19 23 34 44 34 48 0 4 19 38 41 75 133 221 132
221 134 -36 1 -115 7 -216 15 -245 6 -27 13 -54 14 -60 1 -5 6 -21 10 -34 5
-13 10 -35 12 -50 8 -63 17 -97 30 -111 7 -9 17 -36 23 -61 12 -55 137 -299
153 -299 4 0 22 -22 39 -49 18 -27 44 -56 58 -64 14 -9 40 -29 56 -44 51 -49
124 -94 183 -115 31 -10 71 -25 87 -33 17 -8 53 -16 80 -19 28 -3 77 -10 110
-16 33 -7 78 -9 100 -5 22 3 76 9 120 12 139 9 194 17 230 34 36 17 118 38
127 33 4 -3 29 8 55 23 26 15 52 28 58 28 19 1 130 58 176 91 26 19 52 34 59
34 13 0 82 53 134 102 17 15 34 28 39 28 14 0 78 51 138 110 31 30 94 91 139
135 81 79 260 278 260 289 0 7 14 25 88 110 29 33 62 79 73 101 12 22 24 42
28 45 8 5 58 89 79 131 22 44 66 44 133 -1 78 -51 176 -85 288 -97 142 -15
381 0 434 29 19 10 69 20 140 27 4 1 15 9 25 19 31 29 60 43 67 31 4 -6 20 0
40 15 19 15 37 26 41 26 4 0 22 11 40 25 18 14 37 25 42 25 9 0 102 98 165
174 103 124 76 -10 -46 -229 -6 -11 -14 -38 -18 -60 -4 -22 -17 -65 -29 -95
-12 -30 -23 -68 -25 -85 -2 -16 -9 -43 -15 -60 -20 -51 -38 -303 -27 -386 5
-41 13 -79 18 -85 5 -6 15 -45 23 -87 8 -42 22 -84 31 -94 9 -10 29 -38 45
-62 69 -108 226 -224 360 -267 30 -9 60 -21 65 -25 15 -11 161 -38 230 -42 87
-6 240 19 303 49 30 14 56 23 59 20 7 -6 78 31 93 50 7 7 16 11 22 8 10 -6 49
17 87 52 13 12 30 20 37 17 8 -3 14 0 14 6 0 6 13 19 29 29 43 26 288 246 316
284 6 7 58 66 116 129 59 64 110 127 114 140 4 12 36 57 70 98 34 42 75 100
90 129 15 29 47 74 71 101 24 26 41 51 38 53 -3 3 19 41 48 84 30 44 63 95 76
114 12 19 35 55 52 80 16 25 30 52 30 61 0 22 29 33 36 14 4 -8 4 -30 1 -48
-7 -43 -43 -183 -51 -196 -10 -16 -35 -370 -31 -436 3 -33 7 -97 10 -143 4
-50 16 -108 31 -147 13 -36 24 -75 24 -88 0 -12 6 -32 13 -43 6 -12 23 -41 36
-65 50 -93 240 -279 284 -279 10 0 37 -11 60 -24 65 -37 243 -61 332 -45 28 5
76 12 109 15 32 2 75 13 95 23 33 17 82 33 106 36 24 3 55 17 55 25 0 12 58
42 69 36 4 -3 19 6 31 19 13 14 28 25 34 25 6 0 33 21 60 46 32 29 52 41 56
33 6 -8 9 -8 14 0 4 6 4 11 0 11 -4 0 1 9 11 20 10 11 21 18 25 15 4 -2 21 10
38 28 17 18 44 43 61 57 31 25 141 153 141 163 0 3 9 16 20 29 103 123 130
158 130 170 0 7 23 41 50 75 28 35 60 84 71 109 11 26 35 65 54 86 19 21 45
59 57 85 12 27 27 51 33 55 6 4 22 31 35 60 14 29 27 55 30 58 3 3 17 30 33
60 58 116 117 226 128 238 6 8 20 37 30 65 10 28 25 55 33 59 9 5 18 25 22 46
4 20 23 69 43 107 54 106 82 170 86 196 4 35 15 57 30 63 7 2 20 30 29 60 9
31 21 56 26 56 5 0 12 12 16 28 14 60 38 128 50 142 7 8 15 29 19 45 10 45 26
85 35 85 8 0 29 73 36 124 2 16 12 37 23 48 11 10 25 37 31 61 6 23 17 47 24
52 7 6 21 37 30 70 10 33 26 75 37 94 11 18 24 56 30 83 6 27 17 52 24 55 8 2
18 27 24 54 6 27 24 76 41 109 17 33 30 63 29 67 -4 23 3 45 19 61 10 10 26
49 36 87 26 106 61 163 105 173 43 9 379 -21 410 -37 9 -5 44 -12 79 -15 34
-3 90 -17 125 -31 35 -14 71 -25 81 -25 21 0 53 -17 80 -41 11 -11 28 -17 37
-14 13 4 37 -12 79 -53 59 -57 61 -60 74 -134 11 -62 11 -92 0 -169 -7 -51
-17 -95 -23 -97 -6 -2 -11 -11 -11 -20 0 -10 -18 -48 -38 -87 -21 -38 -58
-106 -81 -150 -24 -44 -54 -93 -67 -108 -13 -16 -24 -36 -24 -44 0 -9 -11 -30
-24 -48 -14 -17 -41 -63 -62 -101 -20 -38 -50 -84 -65 -101 -16 -18 -26 -39
-24 -45 3 -7 -9 -28 -25 -47 -17 -18 -35 -51 -40 -72 -6 -21 -17 -45 -26 -53
-19 -20 -214 -405 -214 -423 0 -8 -11 -33 -24 -56 -13 -23 -26 -57 -30 -75 -3
-18 -12 -39 -20 -47 -8 -8 -24 -47 -36 -87 -12 -40 -28 -80 -35 -88 -7 -8 -16
-44 -20 -80 -3 -36 -15 -90 -25 -120 -31 -90 -39 -183 -36 -421 2 -179 6 -232
18 -255 9 -16 25 -62 37 -101 12 -40 28 -76 35 -80 7 -5 21 -23 30 -41 21 -41
72 -92 151 -154 34 -25 67 -53 74 -62 7 -9 23 -16 34 -16 12 0 38 -12 58 -26
21 -14 50 -27 66 -29 15 -2 44 -7 63 -12 48 -10 236 -10 285 1 22 4 54 9 70
11 48 5 72 12 117 38 24 14 49 23 55 20 7 -2 34 14 60 36 27 22 67 48 91 59
64 29 447 408 482 478 8 16 32 49 52 73 39 45 128 175 128 187 0 3 17 27 38
53 21 25 44 61 52 80 7 18 24 46 36 61 13 14 36 51 52 81 51 95 120 210 137
229 9 10 20 34 26 54 5 20 18 44 29 54 10 9 23 35 29 58 6 22 20 51 31 64 11
13 21 28 22 34 0 6 2 16 3 21 2 6 3 16 4 23 0 6 9 20 19 30 10 10 26 40 36 67
11 28 27 55 36 62 10 7 23 33 30 57 7 25 18 51 26 57 7 5 16 25 19 42 9 44 26
87 35 87 4 0 20 38 35 85 42 129 23 195 -55 195 -51 0 -74 -23 -105 -105 -14
-38 -38 -92 -51 -119 -14 -27 -27 -58 -30 -69 -2 -11 -15 -37 -29 -57 -14 -20
-25 -43 -25 -52 0 -8 -13 -35 -30 -59 -16 -24 -30 -54 -30 -65 0 -12 -8 -32
-17 -45 -27 -37 -43 -67 -43 -82 0 -8 -13 -31 -30 -52 -16 -21 -30 -45 -30
-53 0 -8 -10 -29 -23 -46 -13 -17 -43 -67 -67 -111 -24 -44 -54 -100 -68 -125
-13 -25 -35 -56 -48 -70 -12 -14 -37 -53 -54 -87 -17 -35 -43 -78 -59 -95 -15
-18 -46 -64 -69 -103 -23 -38 -56 -86 -75 -105 -18 -19 -55 -64 -81 -100 -26
-36 -54 -72 -62 -80 -8 -8 -42 -46 -77 -84 -101 -112 -219 -226 -233 -226 -7
0 -17 -7 -22 -16 -5 -8 -15 -16 -23 -18 -17 -2 -102 -33 -146 -52 -24 -11 -42
-12 -70 -5 -123 32 -182 73 -188 131 -2 19 -10 71 -18 115 -15 81 -14 198 3
245 5 14 12 63 15 110 7 80 26 162 46 186 4 5 10 26 13 45 6 48 26 122 37 136
6 6 19 41 29 78 11 37 26 78 35 91 8 13 20 46 26 74 6 27 14 50 19 50 5 0 14
17 20 38 13 38 35 88 100 227 21 44 41 92 44 108 4 15 15 36 25 46 10 10 21
36 25 59 3 23 14 47 25 54 10 8 24 33 31 58 6 24 23 58 36 75 13 18 24 36 24
42 0 5 13 30 30 54 16 24 30 56 30 70 0 15 11 37 25 51 13 13 29 44 34 68 5
25 16 49 24 55 8 5 17 21 21 35 4 14 60 133 125 265 161 326 188 384 195 428
4 21 13 37 21 37 8 0 18 20 25 52 6 29 19 67 30 85 10 18 24 58 29 89 6 32 20
76 30 98 29 62 31 73 33 184 1 100 1 103 -27 132 -31 32 -47 35 -122 21 -55
-11 -242 -33 -323 -38 -166 -10 -204 -12 -305 -18 -100 -5 -606 -6 -818 -2
-96 2 -103 7 -89 61 5 18 20 36 42 47 19 10 59 43 90 73 30 29 62 57 70 62 20
11 248 259 276 299 11 17 26 45 33 63 8 17 18 32 23 32 5 0 18 21 29 48 12 26
27 61 34 77 12 27 39 181 49 280 3 35 -7 171 -19 245 -3 14 -6 38 -9 54 -3 16
-15 43 -27 59 -12 17 -25 44 -28 61 -4 19 -16 35 -29 41 -12 5 -22 16 -22 24
0 19 -86 101 -105 101 -8 0 -15 7 -15 15 0 8 -6 15 -12 16 -7 0 -20 2 -28 4
-105 27 -129 30 -170 23 -25 -5 -52 -9 -61 -11 -60 -9 -209 -160 -209 -212 0
-11 -7 -33 -15 -49 -8 -15 -15 -35 -15 -42 0 -8 -4 -22 -10 -32 -5 -9 -14 -51
-19 -92 -6 -41 -18 -104 -26 -140 -9 -36 -22 -99 -29 -141 -8 -42 -18 -84 -24
-95 -15 -29 -29 -84 -37 -139 -4 -27 -13 -63 -20 -80 -14 -31 -17 -45 -39
-161 -8 -39 -21 -82 -29 -95 -8 -13 -20 -57 -26 -98 -7 -41 -22 -95 -35 -120
-12 -25 -26 -66 -30 -91 -4 -25 -15 -63 -25 -85 -18 -38 -28 -76 -36 -135 -2
-14 -16 -52 -31 -85 -14 -33 -26 -71 -26 -84 0 -13 -13 -51 -28 -85 -15 -33
-30 -81 -33 -105 -3 -24 -9 -47 -14 -50 -13 -9 -43 -93 -43 -120 0 -13 -6 -35
-14 -49 -23 -43 -46 -111 -46 -135 0 -12 -6 -31 -14 -42 -8 -11 -26 -56 -41
-100 -15 -43 -33 -85 -40 -91 -7 -7 -15 -32 -18 -56 -4 -24 -20 -70 -37 -103
-16 -33 -30 -66 -30 -73 0 -7 -11 -35 -25 -62 -14 -27 -25 -55 -25 -61 0 -6
-16 -45 -35 -86 -19 -41 -35 -83 -35 -92 0 -9 -11 -32 -25 -51 -14 -19 -25
-41 -25 -49 0 -9 -14 -38 -30 -66 -16 -27 -30 -58 -30 -67 0 -15 -37 -93 -171
-361 -21 -43 -39 -84 -39 -92 0 -8 -4 -15 -9 -15 -5 0 -14 -12 -20 -27 -6 -16
-15 -35 -20 -43 -4 -8 -19 -35 -31 -59 -13 -24 -31 -52 -41 -62 -11 -11 -19
-30 -19 -44 0 -13 -13 -39 -29 -57 -15 -18 -38 -53 -50 -78 -33 -69 -106 -191
-134 -225 -13 -16 -37 -54 -53 -83 -15 -29 -50 -78 -76 -110 -26 -31 -48 -62
-48 -69 0 -20 -270 -303 -289 -303 -5 0 -37 -19 -73 -43 -58 -39 -146 -77
-180 -77 -7 0 -24 -6 -38 -13 -78 -41 -200 -47 -265 -14 -16 8 -46 23 -66 32
-40 20 -79 70 -79 103 0 13 -6 25 -14 28 -14 5 -26 41 -31 89 -1 11 -6 38 -11
60 -10 46 -10 108 0 220 3 44 9 109 11 145 8 95 13 125 34 193 11 34 24 89 30
121 6 32 17 66 25 75 8 9 22 52 31 96 9 43 23 84 30 89 8 6 21 42 30 81 9 38
22 76 29 85 7 8 21 38 31 65 10 28 24 55 31 60 7 6 18 32 24 60 6 27 20 58 31
68 10 10 19 28 19 40 0 12 12 42 26 67 14 25 33 63 42 85 8 22 23 51 32 65 9
14 22 41 29 60 20 52 82 183 96 200 7 8 18 32 24 52 7 20 20 47 30 60 10 13
24 40 30 60 7 20 20 47 30 60 10 13 24 41 31 63 7 22 18 46 24 54 6 7 34 59
62 115 98 195 154 298 174 323 11 14 20 31 20 38 0 6 16 34 35 61 19 27 35 56
35 64 0 8 21 42 45 74 25 33 45 65 45 72 0 22 151 237 221 315 38 42 69 80 69
86 0 5 13 23 30 39 16 16 30 33 30 38 0 6 38 46 85 91 108 104 112 140 12 135
-17 -1 -36 -1 -42 0 -5 1 -14 1 -20 0 -15 -3 -499 -2 -510 1 -26 8 -151 -14
-184 -31 -20 -11 -47 -21 -61 -24 -66 -13 -225 -184 -249 -267 -6 -20 -22 -48
-36 -63 -14 -15 -25 -36 -25 -46 0 -24 -21 -70 -31 -70 -8 0 -22 -34 -24 -62
-1 -9 -15 -36 -30 -59 -16 -22 -30 -48 -31 -56 -2 -8 -14 -32 -29 -52 -14 -21
-27 -48 -30 -60 -2 -13 -18 -43 -34 -68 -17 -25 -28 -50 -25 -55 3 -4 -8 -27
-25 -50 -17 -23 -31 -51 -31 -62 0 -12 -7 -32 -14 -46 -8 -14 -26 -49 -40 -78
-15 -29 -35 -63 -46 -74 -11 -12 -20 -31 -20 -42 0 -12 -14 -39 -30 -60 -17
-22 -30 -49 -30 -61 0 -11 -14 -40 -31 -63 -17 -24 -29 -45 -26 -49 6 -6 -80
-170 -100 -191 -7 -7 -16 -25 -19 -40 -4 -15 -20 -45 -35 -66 -16 -22 -29 -47
-29 -56 0 -8 -10 -31 -23 -50 -13 -19 -31 -48 -39 -65 -53 -104 -109 -207
-137 -249 -17 -28 -31 -55 -31 -60 0 -6 -16 -31 -35 -55 -19 -24 -35 -50 -35
-57 0 -7 -13 -35 -30 -61 -16 -26 -30 -51 -30 -55 0 -11 -70 -121 -81 -128 -4
-3 -16 -23 -25 -45 -8 -21 -26 -53 -39 -69 -12 -17 -35 -53 -50 -81 -15 -27
-40 -68 -57 -90 -16 -22 -52 -74 -79 -115 -82 -126 -133 -196 -193 -266 -32
-38 -62 -77 -66 -88 -12 -30 -136 -174 -247 -288 -95 -97 -272 -248 -291 -248
-5 0 -14 -6 -20 -13 -18 -21 -134 -76 -195 -92 -72 -19 -121 -19 -189 -1 -77
21 -80 22 -114 74 -48 72 -53 83 -69 185 -15 97 -16 94 11 387 3 35 14 82 24
105 9 22 23 71 29 109 7 37 20 87 30 110 10 22 26 62 35 88 10 25 24 52 32 58
7 7 14 23 14 35 0 26 25 91 39 99 5 4 17 30 27 59 9 28 27 70 40 93 13 22 24
48 24 56 0 8 12 33 27 54 15 21 28 48 29 59 2 30 14 55 39 79 12 12 25 40 28
63 4 22 13 43 21 46 7 3 18 26 25 51 6 25 20 53 30 63 11 10 24 37 30 60 7 24
20 51 31 61 10 9 21 30 24 46 3 16 36 92 74 170 39 77 122 249 186 381 64 132
124 254 133 270 8 17 58 113 111 215 52 102 106 201 119 220 13 19 23 41 23
49 0 8 18 37 40 65 21 29 45 66 52 82 14 33 94 134 170 216 25 27 49 56 52 64
3 8 17 19 31 24 14 5 25 16 25 25 0 8 4 15 8 15 5 0 26 16 48 35 21 19 42 35
45 35 4 0 18 18 33 39 22 32 26 43 17 59 -10 19 -23 20 -363 21 -194 0 -355 1
-358 2 -3 1 -9 1 -13 0 -4 -1 -33 -3 -63 -6 -32 -3 -73 -15 -100 -30 -25 -14
-50 -23 -55 -20 -16 10 -164 -123 -193 -173 -5 -8 -9 -23 -10 -32 -1 -9 -11
-30 -24 -46 -12 -16 -49 -81 -81 -144 -31 -63 -90 -178 -131 -255 -40 -77 -90
-174 -110 -215 -21 -41 -75 -149 -120 -240 -232 -461 -284 -567 -334 -675 -21
-44 -62 -129 -92 -190 -30 -60 -54 -119 -54 -130 0 -11 -14 -36 -30 -55 -16
-19 -30 -43 -30 -52 0 -10 -20 -48 -45 -85 -25 -37 -45 -71 -45 -75 0 -9 -48
-80 -108 -159 -54 -73 -115 -139 -133 -144 -11 -4 -19 -13 -19 -20 0 -8 -11
-17 -25 -21 -14 -3 -44 -21 -67 -40 -24 -19 -52 -34 -64 -34 -11 0 -35 -11
-54 -25 -19 -14 -45 -25 -59 -25 -27 0 -134 -23 -190 -41 -50 -17 -212 -12
-263 7 -24 8 -68 20 -98 25 -30 6 -68 17 -85 26 -16 9 -47 25 -67 35 -20 11
-40 29 -44 40 -9 29 4 82 27 112 11 14 26 47 34 74 8 27 22 55 30 62 8 7 25
43 36 81 11 37 27 73 34 79 8 6 19 36 25 66 7 31 17 57 25 60 7 3 20 35 30 72
10 37 25 81 35 97 9 17 23 63 29 102 7 40 17 75 22 78 9 6 26 62 34 115 2 19
9 51 14 70 30 111 41 166 45 237 3 43 10 132 16 198 15 167 -5 429 -43 545
-16 49 -31 120 -29 133 6 23 -115 259 -155 303 -18 20 -33 45 -35 56 -2 10 -6
17 -9 16 -11 -5 -39 24 -39 41 0 9 -12 24 -28 33 -15 10 -56 40 -92 67 -36 28
-71 50 -78 51 -7 0 -37 14 -66 30 -30 17 -58 30 -62 29 -13 -3 -87 12 -107 23
-9 5 -41 11 -70 14 -28 3 -55 8 -59 10 -9 6 -248 5 -298 -1 -19 -2 -64 -12
-100 -23 -76 -23 -118 -34 -142 -37 -9 -1 -35 -14 -57 -28 -22 -15 -46 -24
-53 -22 -8 3 -35 -8 -61 -25 -26 -16 -55 -30 -63 -30 -9 0 -34 -16 -57 -35
-23 -20 -47 -33 -55 -30 -7 3 -49 -22 -93 -55 -44 -33 -84 -60 -89 -60 -5 0
-15 -6 -22 -12 -7 -7 -31 -28 -53 -47 -244 -207 -533 -509 -623 -651 -20 -30
-51 -74 -70 -98 -19 -23 -32 -45 -29 -48 3 -4 2 -11 -4 -18 -50 -61 -109 -144
-109 -154 0 -7 -11 -28 -24 -45 -49 -66 -216 -396 -216 -427 0 -8 -11 -33 -25
-55 -13 -22 -25 -48 -25 -59 0 -10 -16 -53 -35 -96 -19 -43 -35 -84 -35 -92 0
-9 -11 -32 -25 -52 -14 -20 -25 -47 -25 -59 0 -12 -14 -40 -30 -61 -17 -22
-30 -48 -30 -58 0 -11 -13 -39 -30 -63 -16 -24 -30 -50 -30 -58 0 -8 -13 -34
-30 -58 -16 -24 -30 -54 -30 -65 0 -12 -14 -38 -30 -59 -17 -21 -30 -46 -30
-56 0 -11 -4 -19 -9 -19 -4 0 -30 -44 -57 -97 -27 -54 -82 -146 -122 -206 -40
-60 -77 -118 -81 -130 -5 -12 -26 -45 -48 -72 -22 -28 -55 -75 -75 -105 -113
-178 -466 -572 -525 -586 -12 -4 -23 -10 -23 -15 0 -5 -5 -9 -11 -9 -10 0 -69
-41 -97 -67 -6 -6 -22 -15 -35 -18 -12 -3 -49 -18 -81 -32 -33 -14 -77 -27
-98 -29 -21 -2 -57 -6 -80 -8 -77 -8 -148 13 -193 59 -61 62 -76 119 -70 285
6 179 25 323 45 335 4 3 14 38 20 78 7 39 18 86 25 102 31 76 36 89 40 124 3
21 18 64 35 97 16 32 30 70 30 83 0 13 9 39 21 57 11 18 22 45 25 60 3 14 20
57 40 95 19 39 32 74 29 78 -2 5 6 24 19 43 13 20 29 53 36 74 7 22 21 48 31
60 11 11 21 34 23 52 2 17 16 57 31 89 15 32 43 92 62 133 19 41 47 99 61 129
15 29 26 58 24 63 -3 12 27 68 37 68 5 0 14 20 20 45 6 25 20 54 31 65 10 10
24 37 30 59 6 23 20 49 30 59 11 10 26 39 34 64 7 25 23 55 35 67 11 11 21 32
21 45 0 13 13 40 29 60 16 20 32 51 35 70 4 18 15 41 26 51 11 10 25 37 31 59
6 23 22 51 35 64 13 13 24 32 24 43 0 22 20 60 37 72 6 4 15 22 18 40 4 17 23
53 41 78 19 26 34 50 34 54 0 5 17 38 38 74 21 36 44 82 52 101 7 19 26 54 42
77 15 23 28 46 28 51 0 5 11 25 24 44 13 20 29 52 36 72 6 20 20 45 30 54 10
9 22 34 28 54 6 20 24 54 40 75 17 21 33 52 37 70 6 30 4 33 -29 47 -49 20
-212 5 -271 -27 -10 -5 -43 -11 -72 -12 -29 -2 -63 -9 -76 -17 -12 -8 -49 -23
-82 -33 -33 -11 -80 -32 -105 -47 -24 -16 -50 -26 -57 -24 -7 3 -35 -11 -63
-30 -28 -19 -54 -32 -59 -30 -4 3 -30 -10 -57 -29 -27 -19 -53 -33 -59 -32 -5
2 -32 -11 -59 -30 -26 -18 -57 -33 -67 -33 -11 0 -19 -4 -19 -9 0 -5 -8 -11
-17 -14 -10 -4 -36 -18 -58 -32 -22 -14 -58 -34 -80 -44 -22 -11 -51 -31 -64
-45 -13 -14 -32 -26 -43 -26 -11 0 -41 -15 -67 -33 -25 -19 -68 -44 -95 -57
-27 -13 -63 -35 -80 -50 -17 -15 -47 -35 -66 -44 -19 -9 -61 -37 -92 -64 -94
-77 -116 -93 -138 -97 -11 -2 -37 -18 -57 -34 -21 -17 -90 -73 -154 -124 -204
-163 -501 -440 -629 -587 -47 -53 -92 -104 -201 -225 -10 -11 -45 -49 -79 -85
-33 -36 -60 -70 -60 -76 0 -6 -8 -18 -17 -25 -9 -8 -29 -31 -44 -52 -15 -21
-51 -63 -78 -93 -28 -30 -51 -59 -51 -65 0 -5 -7 -9 -15 -9 -8 0 -15 7 -15 15
0 8 5 15 11 15 6 0 8 8 5 18 -3 10 7 42 22 72 66 126 115 215 122 220 5 3 20
30 34 60 15 30 41 81 59 112 18 31 54 98 80 149 76 146 118 219 127 219 4 0
13 20 19 45 6 25 20 53 31 63 12 9 25 34 31 55 5 21 18 46 29 57 25 25 40 54
40 78 0 10 11 31 25 46 14 15 30 47 36 71 6 24 17 46 24 49 7 2 16 20 20 38 9
46 26 88 36 88 4 0 15 26 24 58 9 31 25 72 36 90 11 19 24 55 30 80 5 26 16
53 23 62 46 53 44 188 -4 286 -16 34 -30 67 -30 73 0 6 -6 11 -13 11 -15 0
-54 38 -49 48 2 3 -21 14 -51 23 -30 10 -68 24 -83 32 -39 20 -143 15 -219
-11 -33 -11 -76 -23 -95 -26 -32 -5 -110 -42 -199 -92 -18 -10 -54 -36 -78
-56 -24 -21 -50 -38 -57 -38 -7 0 -21 -9 -31 -20 -10 -11 -24 -20 -31 -20 -7
0 -41 -27 -76 -61 -35 -34 -78 -68 -95 -75 -18 -8 -33 -18 -33 -23 0 -5 -11
-13 -24 -18 -13 -4 -83 -62 -156 -128 -72 -66 -137 -123 -145 -128 -8 -4 -15
-14 -15 -21 0 -12 -24 -27 -65 -41 -16 -5 -17 -8 -5 -15 11 -7 7 -11 -16 -21
-35 -16 -46 -25 -194 -165 -128 -121 -262 -241 -293 -263 -12 -8 -28 -22 -38
-30 -9 -9 -48 -43 -85 -76 -93 -81 -401 -390 -444 -445 -44 -57 -84 -104 -183
-213 -45 -48 -89 -102 -99 -119 -21 -33 -116 -128 -130 -128 -11 0 -10 27 1
35 5 3 12 18 16 34 3 15 22 52 41 82 19 30 49 83 67 119 17 36 34 67 37 70 3
3 29 51 58 108 29 57 64 122 77 145 14 23 37 68 51 99 15 32 31 58 36 58 5 0
22 28 39 63 50 103 103 195 128 224 14 15 31 45 38 67 8 21 23 51 35 65 11 14
39 59 62 99 93 165 206 341 262 406 19 22 34 43 34 48 0 12 52 91 66 100 6 4
33 40 59 80 84 126 275 338 305 338 5 0 10 7 10 15 0 17 -29 22 -155 29 -49 3
-119 12 -154 21 -118 31 -362 22 -436 -17 -22 -11 -48 -22 -58 -24 -45 -8
-190 -146 -261 -247 -75 -107 -126 -186 -126 -197 0 -5 -4 -10 -10 -10 -5 0
-10 -6 -10 -14 0 -8 -20 -44 -45 -80 -25 -37 -45 -71 -45 -78 0 -6 -11 -25
-24 -42 -22 -30 -125 -222 -207 -388 -13 -27 -27 -48 -31 -48 -5 0 -8 -7 -8
-15 0 -8 -13 -36 -28 -62 -15 -26 -36 -68 -47 -93 -10 -25 -24 -52 -30 -60 -6
-8 -19 -31 -28 -50 -9 -19 -26 -48 -37 -65 -11 -16 -25 -46 -30 -66 -6 -20
-21 -48 -35 -63 -14 -15 -25 -36 -25 -48 0 -11 -33 -89 -74 -172 -98 -200
-136 -282 -136 -294 0 -5 -7 -15 -15 -22 -8 -7 -15 -22 -15 -34 0 -12 -4 -26
-9 -31 -20 -21 -111 -196 -111 -213 0 -10 -4 -22 -9 -27 -5 -6 -46 -77 -91
-160 -46 -82 -91 -159 -101 -170 -9 -11 -29 -42 -44 -70 -16 -27 -44 -75 -64
-105 -20 -30 -37 -58 -37 -62 -1 -5 -2 -12 -3 -17 0 -4 -17 -28 -36 -52 -19
-24 -35 -47 -35 -52 -1 -47 -355 -477 -485 -587 -58 -50 -119 -90 -136 -90
-10 0 -32 -12 -49 -26 -17 -15 -41 -28 -53 -30 -12 -1 -44 -7 -70 -13 -67 -16
-172 3 -202 35 -12 13 -27 24 -32 24 -9 0 -25 26 -38 65 -29 85 -36 140 -36
272 1 148 3 172 26 288 8 39 17 99 20 134 4 36 15 90 26 120 10 31 26 91 34
135 8 43 20 85 26 92 11 14 27 67 35 118 2 16 12 43 23 60 10 17 26 60 34 95
9 35 23 71 31 80 8 9 18 32 21 51 3 19 21 68 40 107 19 40 35 79 35 87 0 7 9
24 19 38 11 13 24 44 31 68 6 25 17 50 23 55 7 6 25 35 40 65 15 30 34 66 41
80 8 14 21 41 31 60 9 19 36 71 60 115 25 44 56 103 71 130 14 28 36 61 49 75
12 14 33 45 46 70 13 25 44 70 70 100 25 30 72 93 104 140 32 47 63 90 69 96
6 7 46 48 89 93 81 82 100 123 68 140 -9 5 -68 11 -133 14 -64 3 -126 11 -139
17 -15 8 -82 14 -188 15 -155 3 -169 1 -211 -20 -25 -12 -57 -25 -71 -28 -14
-4 -38 -18 -54 -33 -16 -15 -44 -31 -63 -36 -23 -7 -32 -14 -28 -24 4 -9 -3
-18 -19 -24 -14 -5 -29 -18 -33 -27 -11 -27 -80 -131 -92 -138 -6 -4 -20 -25
-30 -48 -11 -23 -40 -69 -65 -102 -25 -33 -45 -69 -45 -81 0 -12 -11 -33 -25
-47 -14 -14 -36 -45 -48 -68 -13 -24 -35 -64 -51 -88 -15 -24 -36 -62 -46 -85
-10 -22 -27 -52 -39 -65 -12 -14 -24 -36 -28 -50 -3 -14 -23 -51 -44 -82 -21
-30 -59 -96 -85 -145 -73 -142 -116 -217 -134 -239 -10 -11 -46 -72 -80 -135
-35 -63 -85 -145 -111 -182 -27 -37 -49 -72 -49 -77 0 -5 -27 -45 -60 -89 -33
-45 -60 -86 -60 -91 0 -5 -21 -40 -46 -77 -49 -72 -49 -71 -92 -124 -16 -19
-52 -73 -80 -120 -29 -49 -91 -129 -144 -185 -51 -55 -100 -109 -109 -120 -22
-30 -259 -257 -297 -285 -19 -14 -50 -34 -70 -45 -21 -11 -51 -29 -67 -41 -44
-30 -140 -73 -162 -72 -10 1 -45 -6 -77 -15 -83 -22 -185 -16 -258 16 -32 14
-58 31 -58 36 0 6 -6 11 -14 11 -14 0 -28 21 -32 50 -1 8 -15 49 -30 90 -20
57 -27 95 -28 155 -2 124 12 285 28 340 8 28 22 92 31 144 8 52 19 100 24 105
10 13 33 83 36 111 4 30 4 30 25 55 11 13 20 28 21 34 2 34 13 67 38 121 16
33 32 74 35 92 4 17 16 41 27 54 10 12 24 39 29 59 5 20 19 45 30 55 11 10 25
35 30 56 6 21 16 44 23 51 15 15 97 163 193 348 13 25 37 61 54 80 17 19 39
51 50 70 10 19 38 62 62 95 24 33 61 87 83 120 22 33 62 87 90 120 28 33 68
87 90 120 22 33 64 87 95 120 70 77 124 137 224 250 86 97 117 128 219 219 36
33 64 63 61 67 -2 4 5 11 17 14 11 4 60 44 107 90 110 105 183 163 200 158 7
-3 25 8 41 24 45 45 116 93 138 93 11 0 28 9 39 21 24 27 65 48 82 42 7 -3 29
9 48 27 22 19 44 30 55 27 9 -3 30 3 46 12 66 40 140 53 298 55 179 2 196 -2
343 -72 59 -28 202 -195 202 -237 0 -7 4 -15 9 -17 4 -1 18 -24 29 -51 24 -54
61 -75 100 -58 12 6 32 11 42 11 21 0 60 47 79 97 20 51 8 128 -28 178 -17 24
-31 46 -31 50 0 8 -58 61 -135 124 -27 23 -59 49 -71 60 -12 10 -41 28 -65 39
-24 12 -55 27 -69 35 -67 37 -141 66 -195 77 -33 7 -66 17 -72 22 -47 38 -477
74 -600 49 -32 -6 -87 -14 -123 -17 -36 -3 -81 -7 -100 -9 -19 -2 -62 -13 -95
-25 -33 -12 -72 -23 -86 -25 -23 -3 -101 -33 -141 -55 -10 -6 -28 -10 -41 -10
-13 0 -38 -11 -57 -25 -19 -14 -44 -25 -55 -25 -12 0 -42 -16 -68 -36 -25 -20
-51 -33 -57 -29 -6 4 -27 -8 -47 -25 -20 -18 -50 -39 -67 -47 -52 -23 -99 -54
-139 -89 -21 -19 -68 -54 -105 -78 -37 -24 -85 -61 -108 -82 -85 -82 -160
-147 -181 -157 -13 -6 -23 -14 -23 -19 0 -5 -25 -34 -55 -64 -30 -31 -55 -58
-55 -61 0 -2 -13 -16 -30 -29 -16 -14 -71 -74 -122 -132 -50 -59 -95 -108
-100 -110 -4 -2 -8 -8 -8 -14 0 -6 -15 -29 -34 -52 -59 -72 -130 -169 -166
-226 -19 -30 -47 -71 -62 -90 -15 -19 -28 -41 -28 -48 0 -15 -71 -122 -94
-141 -9 -7 -16 -23 -16 -35 0 -11 -16 -41 -35 -65 -19 -24 -32 -48 -29 -53 3
-5 -5 -23 -18 -41 -26 -34 -98 -176 -98 -192 0 -6 -14 -30 -30 -55 -16 -25
-30 -56 -30 -69 0 -14 -11 -41 -25 -61 -14 -20 -28 -47 -30 -60 -2 -12 -10
-32 -18 -44 -7 -11 -24 -47 -36 -78 -13 -32 -27 -58 -32 -58 -5 0 -9 -6 -9
-13 0 -20 -30 -78 -57 -110 -12 -16 -23 -37 -23 -46 0 -10 -13 -38 -30 -62
-16 -24 -30 -50 -30 -58 0 -7 -16 -35 -35 -61 -19 -26 -35 -53 -35 -60 0 -6
-13 -31 -30 -55 -16 -24 -30 -48 -30 -54 0 -6 -4 -11 -8 -11 -5 0 -17 -18 -27
-40 -10 -22 -31 -54 -46 -72 -16 -17 -29 -35 -29 -39 0 -4 -6 -14 -12 -21 -7
-7 -20 -29 -29 -48 -15 -31 -63 -97 -144 -196 -14 -18 -25 -35 -25 -39 0 -13
-104 -137 -189 -224 -44 -46 -81 -87 -81 -92 0 -5 -13 -17 -30 -27 -20 -12
-26 -22 -20 -28 10 -10 -9 -24 -54 -38 -10 -4 -16 -12 -13 -21 4 -8 -2 -17
-15 -21 -12 -3 -55 -35 -96 -70 -50 -43 -81 -62 -92 -59 -11 3 -34 -8 -60 -30
-23 -19 -49 -35 -58 -35 -8 0 -34 -11 -57 -24 -23 -14 -50 -25 -61 -25 -10 -1
-37 -4 -59 -8 -81 -13 -275 -4 -298 15 -7 5 -34 22 -62 37 -27 15 -59 37 -70
50 -11 13 -29 25 -40 27 -11 2 -21 13 -23 25 -2 12 -14 33 -28 48 -13 14 -28
43 -34 63 -14 56 -27 102 -45 157 -27 82 -39 378 -23 525 4 36 10 86 13 112 3
27 12 67 19 90 8 24 20 78 26 120 6 43 20 103 32 135 11 32 24 85 30 118 5 33
18 75 28 92 11 18 22 52 25 75 4 24 8 52 9 63 2 11 4 25 5 32 0 6 7 18 14 25
12 12 33 74 42 120 7 37 16 58 24 58 5 0 17 27 27 60 11 33 22 60 26 60 4 0
10 16 14 35 4 23 18 45 43 65 20 16 43 36 51 45 8 8 33 32 55 52 135 129 651
672 666 702 26 49 69 105 143 181 40 42 89 101 108 131 19 29 65 90 101 134
37 44 67 84 67 88 0 5 34 54 75 109 41 55 75 104 75 109 0 4 42 70 93 146 52
76 106 163 121 193 15 30 35 62 45 71 10 8 22 26 26 40 12 42 30 79 37 79 4 0
20 24 34 53 25 48 70 115 86 127 4 3 16 27 27 53 11 26 31 62 45 80 13 18 27
43 31 57 4 14 13 32 20 40 7 8 32 53 56 99 24 46 60 113 81 150 36 65 52 97
69 136 5 11 18 31 29 45 11 14 22 35 24 47 6 30 25 63 36 63 5 0 13 19 16 42
4 23 17 52 29 64 27 27 38 51 43 91 1 7 11 20 21 30 10 10 24 38 31 62 6 24
20 56 31 70 11 14 21 37 24 51 3 14 14 37 26 53 11 15 27 50 35 78 8 27 19 49
24 49 5 0 18 26 30 58 12 31 29 71 39 87 9 17 25 54 35 84 9 29 24 60 32 68 8
8 15 22 15 31 3 42 19 92 30 92 9 0 39 93 39 122 0 11 11 43 25 72 14 29 27
66 29 82 2 16 16 75 30 131 15 56 28 123 30 150 2 26 10 93 17 148 11 87 10
116 -4 215 -23 159 -21 154 -46 194 -13 20 -24 47 -26 61 -2 26 -62 95 -81 95
-7 0 -19 11 -28 25 -10 15 -26 25 -40 25 -13 0 -36 10 -52 22 -25 20 -41 23
-149 25 -83 2 -128 -1 -145 -10z m276 -565 c13 -45 15 -78 9 -152 -10 -154
-24 -240 -50 -315 -13 -38 -27 -95 -31 -125 -4 -30 -20 -82 -36 -115 -15 -33
-28 -70 -28 -82 0 -12 -13 -44 -30 -70 -16 -26 -30 -54 -30 -64 0 -9 -12 -34
-26 -55 -14 -21 -27 -49 -29 -62 -1 -13 -12 -36 -23 -51 -11 -16 -26 -48 -32
-72 -14 -53 -126 -279 -370 -744 -34 -66 -73 -133 -86 -148 -13 -16 -24 -39
-24 -51 0 -12 -9 -32 -20 -44 -12 -12 -30 -43 -41 -69 -11 -27 -26 -55 -33
-63 -8 -8 -30 -46 -51 -85 -20 -38 -50 -85 -66 -104 -15 -19 -26 -38 -22 -43
3 -5 -8 -26 -24 -46 -17 -20 -48 -69 -71 -109 -22 -40 -50 -82 -61 -95 -12
-12 -22 -25 -22 -30 -1 -4 -2 -12 -3 -17 0 -5 -27 -43 -58 -86 -32 -42 -58
-81 -58 -87 0 -12 -54 -90 -74 -107 -8 -7 -31 -41 -51 -76 -19 -34 -51 -82
-70 -105 -20 -23 -52 -70 -71 -104 -20 -33 -48 -75 -63 -92 -14 -17 -33 -41
-41 -54 -8 -12 -28 -40 -45 -61 -16 -20 -47 -61 -68 -91 -21 -29 -53 -70 -72
-92 -19 -21 -35 -42 -35 -48 0 -9 -60 -85 -169 -213 -33 -38 -60 -74 -61 -79
0 -5 -15 -24 -32 -41 -18 -17 -78 -81 -133 -143 -93 -104 -125 -127 -140 -102
-3 5 0 22 8 37 26 50 52 117 49 129 -1 6 13 45 32 85 19 41 37 89 41 107 4 18
13 36 20 38 13 5 30 50 26 68 -1 4 9 27 22 50 13 22 32 71 42 109 10 37 22 67
26 67 13 0 30 39 34 77 2 19 10 42 18 51 8 9 25 48 38 85 12 38 28 75 35 82 8
7 18 35 24 61 6 27 20 57 31 67 10 10 19 23 20 30 2 31 10 55 37 111 60 123
90 192 96 222 4 18 16 40 26 49 10 9 24 38 30 65 6 27 18 51 25 54 7 2 16 20
20 38 4 18 17 51 30 73 12 22 26 51 30 65 4 14 36 84 70 155 35 72 68 145 75
163 7 17 16 32 21 32 5 0 9 5 9 10 0 12 41 103 50 110 8 7 21 39 26 69 3 13
16 37 29 53 14 16 25 40 25 53 0 13 11 37 25 53 13 16 28 48 34 71 5 23 16 50
25 60 8 9 24 37 36 63 11 25 27 51 35 58 8 7 20 31 26 54 6 22 19 49 30 59 10
9 23 36 29 60 6 23 17 47 24 52 15 12 29 43 32 72 2 13 17 40 34 61 17 22 30
43 29 48 -2 16 13 54 23 54 5 0 22 28 38 63 16 34 54 103 84 152 31 50 67 113
80 141 14 28 35 63 48 77 13 13 29 42 37 63 8 22 35 64 60 94 26 30 53 69 61
85 8 17 37 59 65 95 28 36 62 81 75 100 13 19 28 37 32 38 4 2 8 8 8 14 0 31
253 294 291 302 84 19 92 14 115 -62z m12799 -3338 c68 -32 98 -55 140 -105
29 -35 65 -98 65 -115 0 -8 4 -14 9 -14 9 0 26 -48 23 -63 -3 -12 20 -101 29
-113 20 -26 31 -131 30 -304 -1 -102 -5 -210 -10 -240 -5 -30 -15 -92 -21
-137 -15 -94 -25 -101 -65 -49 -15 20 -42 40 -63 47 -20 6 -44 17 -52 25 -24
20 -108 35 -159 28 -25 -4 -64 -17 -87 -30 -22 -13 -46 -24 -52 -24 -19 0
-142 -127 -142 -147 0 -10 -8 -31 -18 -48 -30 -49 -45 -121 -45 -213 0 -121 9
-242 21 -272 5 -14 15 -45 22 -70 6 -25 16 -59 21 -76 5 -17 9 -38 9 -47 0 -9
9 -24 19 -34 11 -10 25 -40 32 -66 6 -26 19 -52 29 -57 10 -5 23 -31 29 -57 7
-26 22 -55 34 -65 16 -13 22 -29 25 -80 4 -58 2 -66 -27 -102 -17 -21 -31 -46
-31 -55 0 -10 -19 -44 -43 -76 -23 -33 -48 -71 -55 -85 -7 -14 -42 -61 -77
-105 -36 -44 -63 -86 -60 -92 2 -7 0 -13 -5 -13 -5 0 -24 -21 -41 -47 -18 -26
-71 -87 -119 -137 -47 -50 -96 -107 -108 -127 -12 -20 -39 -49 -60 -65 -20
-15 -47 -40 -60 -56 -13 -15 -28 -28 -34 -28 -5 0 -33 -22 -61 -49 -118 -112
-163 -151 -182 -157 -11 -3 -27 -12 -35 -19 -8 -6 -35 -23 -60 -36 -25 -13
-53 -30 -63 -38 -17 -14 -31 -18 -92 -25 -16 -2 -50 -9 -75 -16 -63 -17 -196
-24 -228 -12 -15 5 -54 18 -87 27 -33 10 -67 25 -76 34 -9 9 -32 31 -52 49
-20 18 -39 45 -42 60 -7 29 -9 34 -38 75 -10 14 -20 36 -22 49 -1 13 -13 61
-26 108 -22 77 -24 104 -24 295 1 195 13 333 35 375 4 8 10 42 13 76 6 64 24
142 37 159 7 9 15 46 25 116 3 15 12 46 21 70 9 24 24 75 34 112 10 37 25 79
34 92 9 13 20 45 26 70 6 25 19 58 29 73 10 15 26 56 36 92 10 36 25 72 32 81
7 9 15 30 17 47 3 16 29 81 59 143 88 183 147 310 147 315 0 3 11 20 24 37 14
18 34 53 45 79 11 25 35 64 53 85 18 21 41 54 51 73 21 44 31 60 87 136 25 33
54 74 65 90 29 41 77 96 175 200 47 50 94 101 105 115 11 13 44 44 74 69 30
25 75 64 101 88 26 23 52 42 57 42 5 0 18 9 28 20 10 11 22 17 26 14 5 -3 30
11 55 30 26 20 56 36 67 36 12 0 38 12 58 26 36 25 52 29 133 39 21 3 42 7 45
10 3 3 48 3 101 -1 78 -6 107 -13 165 -40z m-15225 -1094 c0 -5 -4 -10 -10
-10 -5 0 -10 5 -10 10 0 6 5 10 10 10 6 0 10 -4 10 -10z"/>
<path d="M910 5751 c-30 -10 -60 -16 -66 -14 -6 2 -45 -12 -86 -32 -42 -19
-82 -35 -88 -35 -22 0 -211 -153 -239 -194 -8 -12 -28 -36 -45 -54 -46 -49
-126 -191 -126 -224 0 -10 -4 -18 -9 -18 -10 0 -18 -31 -26 -105 -3 -28 -9
-66 -15 -85 -14 -49 -12 -144 4 -215 7 -33 14 -67 14 -75 2 -31 24 -110 31
-110 11 0 32 -50 26 -60 -8 -12 16 -60 30 -60 14 0 38 -48 30 -60 -8 -13 182
-207 210 -214 12 -3 25 -15 28 -26 3 -11 12 -20 21 -20 9 0 39 -16 67 -35 28
-19 55 -33 59 -30 5 3 45 -8 89 -24 118 -43 240 -56 366 -38 28 3 67 9 88 11
21 2 43 9 50 14 14 12 101 43 114 41 20 -3 34 3 60 27 15 14 40 28 56 31 15 3
32 14 38 24 5 11 16 19 23 19 17 0 218 209 211 220 -6 9 17 60 27 60 10 0 29
37 34 68 3 15 12 38 20 51 36 55 74 380 49 421 -4 6 -8 25 -10 43 -7 59 -23
119 -32 126 -12 8 -27 43 -24 58 2 17 -27 73 -39 73 -8 0 -21 28 -26 58 -6 31
-241 262 -268 262 -7 0 -21 9 -31 20 -10 11 -26 20 -36 20 -10 0 -20 4 -23 9
-3 4 -20 11 -38 15 -17 3 -39 13 -49 22 -24 21 -225 54 -328 53 -51 0 -108 -8
-141 -18z"/>
<path d="M3875 5753 c-27 -8 -63 -16 -80 -17 -16 -2 -61 -17 -98 -34 -37 -18
-71 -31 -75 -30 -10 3 -122 -73 -122 -83 0 -4 -13 -16 -30 -26 -16 -9 -30 -21
-30 -24 0 -4 -23 -31 -51 -60 -61 -62 -134 -172 -164 -247 -12 -29 -25 -55
-29 -59 -3 -3 -6 -17 -6 -30 0 -13 -10 -70 -21 -126 -22 -104 -22 -181 0 -265
5 -20 15 -63 21 -94 6 -31 18 -62 26 -69 8 -6 17 -30 21 -51 3 -25 17 -52 34
-69 16 -17 30 -34 30 -39 1 -6 2 -14 3 -18 2 -16 52 -75 126 -150 93 -93 95
-95 150 -121 25 -12 56 -28 70 -36 54 -31 188 -78 240 -84 162 -18 338 0 455
48 22 9 44 15 50 13 7 -1 31 16 56 38 26 24 50 38 60 35 10 -4 23 4 33 20 9
14 22 25 29 25 22 0 175 163 197 210 11 25 31 60 45 79 14 19 25 44 25 57 0
12 7 30 16 39 16 15 33 72 39 125 2 14 9 58 16 98 13 70 11 105 -16 262 -3 14
-7 39 -9 55 -3 17 -14 48 -25 70 -12 21 -21 47 -21 56 0 9 -13 36 -30 60 -16
24 -30 49 -30 54 -2 31 -238 265 -268 265 -8 0 -27 11 -44 25 -16 13 -46 29
-66 34 -20 6 -46 17 -58 25 -30 21 -247 56 -340 55 -43 -1 -101 -8 -129 -16z"/>
<path d="M44770 5758 c-14 -5 -36 -11 -50 -13 -14 -2 -41 -6 -62 -8 -20 -3
-50 -12 -67 -21 -17 -9 -44 -23 -61 -31 -16 -9 -36 -15 -43 -13 -7 2 -19 -3
-27 -10 -8 -7 -33 -26 -55 -42 -22 -17 -83 -73 -135 -125 -94 -95 -106 -113
-202 -308 -15 -30 -41 -185 -45 -269 -3 -43 1 -103 8 -135 7 -32 14 -67 15
-78 6 -60 19 -102 35 -118 11 -10 20 -25 20 -35 3 -47 17 -82 33 -82 15 0 39
-47 31 -60 -10 -17 165 -188 235 -230 37 -22 81 -53 98 -68 29 -26 46 -33 167
-66 95 -27 214 -39 299 -31 44 4 92 9 106 9 25 2 116 33 135 47 6 4 29 12 52
18 24 7 55 23 69 36 15 14 37 25 50 25 13 0 29 9 36 20 7 11 18 20 24 20 21 0
163 159 189 212 14 28 37 62 50 74 14 13 25 33 25 46 0 13 7 34 15 48 8 14 18
35 24 46 17 38 41 202 41 282 0 88 -33 263 -55 295 -8 12 -15 31 -15 43 0 11
-11 36 -25 55 -14 19 -32 49 -40 67 -19 41 -28 51 -143 168 -52 52 -105 97
-118 100 -14 4 -28 14 -33 23 -5 9 -31 22 -58 30 -26 7 -64 22 -83 33 -74 42
-373 74 -440 46z"/>
<path d="M47695 5753 c-27 -8 -63 -16 -80 -17 -16 -2 -60 -17 -97 -35 -37 -17
-73 -31 -80 -32 -27 -1 -209 -154 -248 -208 -15 -20 -34 -42 -44 -50 -10 -8
-27 -33 -38 -55 -11 -23 -26 -48 -33 -56 -7 -8 -20 -37 -30 -65 -10 -27 -22
-55 -27 -61 -5 -7 -11 -36 -14 -65 -3 -30 -12 -81 -20 -114 -18 -76 -18 -146
0 -215 7 -30 17 -77 21 -105 4 -27 18 -68 31 -91 14 -23 24 -46 23 -50 -5 -19
14 -64 25 -64 14 0 36 -41 36 -65 0 -20 184 -205 204 -205 9 0 21 -11 26 -25
5 -14 16 -25 25 -25 9 0 38 -16 66 -35 28 -19 55 -32 60 -29 5 3 46 -8 92 -25
119 -44 242 -57 372 -38 28 4 65 9 83 11 18 2 38 8 45 14 19 15 109 42 119 36
5 -3 30 10 55 30 26 20 54 36 64 36 10 0 23 9 29 20 6 11 16 20 23 20 19 0
207 193 211 217 6 30 25 63 36 63 5 0 14 19 20 43 7 23 20 60 30 82 20 41 35
94 31 108 -1 5 3 25 8 45 15 61 21 203 10 252 -6 25 -12 54 -14 65 -14 72 -24
105 -38 126 -10 13 -17 34 -17 46 0 26 -16 56 -42 85 -10 10 -18 27 -18 37 0
11 -10 28 -22 38 -13 10 -39 39 -58 63 -19 25 -43 52 -55 60 -11 8 -43 36 -71
62 -28 26 -58 48 -67 48 -9 0 -21 8 -26 18 -5 9 -37 25 -73 36 -34 10 -70 25
-79 33 -24 20 -227 53 -323 52 -44 0 -103 -7 -131 -16z"/>
</g>
  </svg>
  <svg x="1600.59" y="408.86" width="494.24" height="70.00" viewBox="0 0 2916 413" preserveAspectRatio="xMidYMid meet">
    <g transform="translate(0.000000,413.000000) scale(0.100000,-0.100000)"
fill="#ffffff" stroke="none">
<path d="M16668 3797 l-478 -232 0 -237 0 -237 103 43 c56 23 272 114 479 202
l378 159 0 268 c0 147 -1 267 -2 266 -2 0 -218 -105 -480 -232z"/>
<path d="M4699 2956 c-528 -76 -932 -404 -1103 -894 -119 -341 -111 -784 18
-1111 161 -406 500 -700 927 -805 207 -50 464 -59 672 -22 414 75 762 328 936
681 43 87 101 240 101 266 0 5 -163 9 -374 9 l-374 0 -33 -58 c-17 -31 -62
-87 -98 -123 -189 -189 -510 -233 -771 -107 -69 33 -101 57 -170 127 -97 99
-144 178 -186 316 -27 86 -28 99 -28 295 0 196 1 209 28 295 42 138 89 217
186 316 69 70 101 94 170 127 261 126 582 82 771 -107 36 -36 81 -92 98 -123
l33 -58 375 0 375 0 -7 33 c-10 43 -67 191 -98 254 -144 282 -409 512 -719
621 -198 70 -510 99 -729 68z"/>
<path d="M10392 2958 c-264 -33 -522 -160 -652 -322 -135 -165 -194 -398 -161
-630 23 -164 81 -278 200 -396 129 -129 248 -187 641 -317 140 -46 289 -100
329 -121 99 -48 182 -129 201 -195 24 -88 -3 -199 -62 -254 -75 -70 -246 -102
-362 -69 -88 26 -140 62 -181 126 -26 41 -55 124 -55 157 l0 23 -360 0 -360 0
0 -61 c0 -178 100 -395 243 -526 214 -195 533 -294 897 -279 156 6 283 29 391
69 281 106 475 307 551 573 18 64 22 105 23 214 0 197 -35 309 -137 437 -130
164 -275 244 -728 403 -224 78 -386 151 -439 195 -43 37 -81 117 -81 173 0 81
20 133 71 183 78 79 199 100 334 58 55 -17 78 -31 120 -72 50 -51 59 -70 80
-169 l5 -28 370 0 370 0 0 35 c0 52 -28 179 -56 253 -92 246 -319 431 -619
507 -167 43 -395 56 -573 33z"/>
<path d="M13252 2958 c-264 -33 -522 -160 -652 -322 -135 -165 -194 -398 -161
-630 23 -164 81 -278 200 -396 129 -129 248 -187 641 -317 140 -46 289 -100
329 -121 99 -48 182 -129 201 -195 24 -88 -3 -199 -62 -254 -75 -70 -246 -102
-362 -69 -88 26 -140 62 -181 126 -26 41 -55 124 -55 157 l0 23 -360 0 -360 0
0 -61 c0 -178 100 -395 243 -526 214 -195 533 -294 897 -279 156 6 283 29 391
69 281 106 475 307 551 573 18 64 22 105 23 214 0 197 -35 309 -137 437 -130
164 -275 244 -728 403 -224 78 -386 151 -439 195 -43 37 -81 117 -81 173 0 81
20 133 71 183 78 79 199 100 334 58 55 -17 78 -31 120 -72 50 -51 59 -70 80
-169 l5 -28 370 0 370 0 0 35 c0 52 -28 179 -56 253 -92 246 -319 431 -619
507 -167 43 -395 56 -573 33z"/>
<path d="M16525 2964 c-641 -69 -1147 -532 -1262 -1154 -25 -136 -25 -420 1
-555 110 -590 543 -1023 1141 -1141 125 -25 423 -25 555 -1 440 82 809 358
1008 753 55 110 97 234 124 366 32 161 32 454 -1 608 -68 321 -216 576 -453
785 -175 153 -436 277 -673 320 -87 16 -359 27 -440 19z m370 -639 c241 -66
413 -241 491 -500 21 -74 27 -117 31 -240 6 -172 -5 -262 -46 -383 -41 -117
-84 -185 -181 -282 -93 -93 -177 -143 -300 -176 -91 -25 -329 -25 -420 0 -246
67 -416 239 -496 501 -26 85 -28 102 -28 285 -1 221 9 276 74 415 102 218 276
352 515 395 73 13 289 4 360 -15z"/>
<path d="M24655 2964 c-641 -69 -1147 -532 -1262 -1154 -25 -136 -25 -420 1
-555 110 -590 543 -1023 1141 -1141 125 -25 423 -25 555 -1 440 82 809 358
1008 753 55 110 97 234 124 366 32 161 32 454 -1 608 -68 321 -216 576 -453
785 -175 153 -436 277 -673 320 -87 16 -359 27 -440 19z m370 -639 c241 -66
413 -241 491 -500 21 -74 27 -117 31 -240 6 -172 -5 -262 -46 -383 -41 -117
-84 -185 -181 -282 -93 -93 -177 -143 -300 -176 -91 -25 -329 -25 -420 0 -246
67 -416 239 -496 501 -26 85 -28 102 -28 285 -1 221 9 276 74 415 102 218 276
352 515 395 73 13 289 4 360 -15z"/>
<path d="M27782 2958 c-264 -33 -522 -160 -652 -322 -135 -165 -194 -398 -161
-630 23 -164 81 -278 200 -396 129 -129 248 -187 641 -317 140 -46 289 -100
329 -121 99 -48 182 -129 201 -195 24 -88 -3 -199 -62 -254 -75 -70 -246 -102
-362 -69 -88 26 -140 62 -181 126 -26 41 -55 124 -55 157 l0 23 -360 0 -360 0
0 -61 c0 -178 100 -395 243 -526 214 -195 533 -294 897 -279 156 6 283 29 391
69 281 106 475 307 551 573 18 64 22 105 23 214 0 197 -35 309 -137 437 -130
164 -275 244 -728 403 -224 78 -386 151 -439 195 -43 37 -81 117 -81 173 0 81
20 133 71 183 78 79 199 100 334 58 55 -17 78 -31 120 -72 50 -51 59 -70 80
-169 l5 -28 370 0 370 0 0 35 c0 52 -28 179 -56 253 -92 246 -319 431 -619
507 -167 43 -395 56 -573 33z"/>
<path d="M1105 2928 c-3 -7 -228 -632 -501 -1388 -273 -756 -499 -1385 -501
-1397 l-5 -23 354 0 355 0 85 248 85 247 524 3 525 2 84 -247 85 -248 359 -3
359 -2 -6 27 c-4 16 -231 649 -505 1408 l-498 1380 -397 3 c-313 2 -399 0
-402 -10z m574 -1270 l170 -508 -344 0 c-190 0 -345 1 -345 3 0 3 327 984 335
1006 3 8 7 12 9 10 2 -2 81 -232 175 -511z"/>
<path d="M7080 1530 l0 -1410 860 0 860 0 0 275 0 275 -520 0 -520 0 0 310 0
310 460 0 460 0 0 265 0 265 -460 0 -460 0 0 285 0 285 520 0 520 0 0 275 0
275 -860 0 -860 0 0 -1410z"/>
<path d="M21910 1530 l0 -1410 340 0 340 0 0 1410 0 1410 -340 0 -340 0 0
-1410z"/>
<path d="M18900 1520 l0 -1410 340 0 340 0 0 535 0 535 83 0 82 0 282 -513
c156 -281 290 -522 298 -535 l16 -22 380 0 c208 0 379 3 379 6 0 3 -142 251
-315 550 -173 299 -318 549 -320 556 -4 9 17 21 62 36 206 71 369 215 463 407
70 145 85 210 84 385 0 151 -11 213 -56 330 -116 300 -394 491 -783 539 -56 7
-322 11 -712 11 l-623 0 0 -1410z m1222 829 c107 -23 182 -78 229 -169 21 -40
24 -59 24 -160 0 -99 -3 -122 -23 -165 -42 -92 -119 -150 -230 -174 -31 -6
-155 -11 -297 -11 l-245 0 0 345 0 345 245 0 c142 0 266 -5 297 -11z"/>
</g>
  </svg>
</svg>
