<svg xmlns="http://www.w3.org/2000/svg" viewBox="0 0 64 64" xmlns:c2pa="http://c2pa.org/manifest"><metadata><c2pa:manifest>AAAWgmp1bWIAAAAeanVtZGMycGEAEQAQgAAAqgA4m3EDYzJwYQAAABZcanVtYgAAAEdqdW1kYzJtYQARABCAAACqADibcQN1cm46YzJwYTowM2QwYzM0My01NTYxLTQ2ZTItYTU2Mi1jMDlkMzVjZTk4NjIAAAADl2p1bWIAAAApanVtZGMyYXMAEQAQgAAAqgA4m3EDYzJwYS5hc3NlcnRpb25zAAAAALxqdW1iAAAARGp1bWRjYm9yABEAEIAAAKoAOJtxE2MycGEuaW5ncmVkaWVudC52MwAAAAAYYzJzaA6YQknmnPB72Zgj5XtfcF4AAABwY2JvcqNpZGM6Zm9ybWF0bWltYWdlL3N2Zyt4bWxqaW5zdGFuY2VJRHgseG1wOmlpZDphM2Y3NWE0Ni1mZWMwLTQwYzItOTYxOC03MmYxNWFiNmEyN2JscmVsYXRpb25zaGlwaHBhcmVudE9mAAAB4mp1bWIAAABBanVtZGNib3IAEQAQgAAAqgA4m3ETYzJwYS5hY3Rpb25zLnYyAAAAABhjMnNoikW1dNlsWKiVtnzJ1XAuAAAAAZljYm9yomdhY3Rpb25zgqJmYWN0aW9ua2MycGEub3BlbmVkanBhcmFtZXRlcnOha2luZ3JlZGllbnRzgaJjdXJseC1zZWxmI2p1bWJmPWMycGEuYXNzZXJ0aW9ucy9jMnBhLmluZ3JlZGllbnQudjNkaGFzaFggnrbxfmED2axCfU6mv3wdZpN9Rnh9i9zbLKhTHNyx2UCkZmFjdGlvbngdY29tLmFudGhyb3BpYy5jbGF1ZGUucHJvdmlkZWRqcGFyYW1ldGVyc6F4H2NvbS5hbnRocm9waWMub3JpZ2luLWNvbmZpZGVuY2VndW5rbm93bmtkZXNjcmlwdGlvbnhmQ2xhdWRlIHByb3ZpZGVkIHRoaXMgZmlsZSBhdCB0aGUgcmVxdWVzdCBvZiBhIHVzZXIgYW5kIG1heSBoYXZlIGNyZWF0ZWQgb3IgbW9kaWZpZWQgdGhlIGZpbGUgY29udGVudHMubXNvZnR3YXJlQWdlbnShZG5hbWVmQ2xhdWRlcmFsbEFjdGlvbnNJbmNsdWRlZPUAAADIanVtYgAAAEBqdW1kY2JvcgARABCAAACqADibcRNjMnBhLmhhc2guZGF0YQAAAAAYYzJzaN6fXbJN9OdOJ+s4utTb+xMAAACAY2JvcqVjYWxnZnNoYTI1NmNwYWRNAAAAAAAAAAAAAAAAAGRoYXNoWCCobq/rhBCi/h2EWEDa3ff18wOaBspdUzxSq3xpOkWPnmRuYW1lbmp1bWJmIG1hbmlmZXN0amV4Y2x1c2lvbnOBomVzdGFydBh7Zmxlbmd0aBkeBAAAAj5qdW1iAAAAJ2p1bWRjMmNsABEAEIAAAKoAOJtxA2MycGEuY2xhaW0udjIAAAACD2Nib3KlY2FsZ2ZzaGEyNTZpc2lnbmF0dXJleE1zZWxmI2p1bWJmPS9jMnBhL3VybjpjMnBhOjAzZDBjMzQzLTU1NjEtNDZlMi1hNTYyLWMwOWQzNWNlOTg2Mi9jMnBhLnNpZ25hdHVyZWppbnN0YW5jZUlEeCx4bXA6aWlkOmQ1NjZlYjA0LTY5YTMtNDU1ZS1iMDQ1LWEyOGE4Y2RjYjg3N3JjcmVhdGVkX2Fzc2VydGlvbnODomN1cmx4LXNlbGYjanVtYmY9YzJwYS5hc3NlcnRpb25zL2MycGEuaW5ncmVkaWVudC52M2RoYXNoWCCetvF+YQPZrEJ9Tqa/fB1mk31GeH2L3NssqFMc3LHZQKJjdXJseCpzZWxmI2p1bWJmPWMycGEuYXNzZXJ0aW9ucy9jMnBhLmFjdGlvbnMudjJkaGFzaFgga5e0bGbCQezcDDszDpS2GiXS37RPWhWwv8pDOGv9/RyiY3VybHgpc2VsZiNqdW1iZj1jMnBhLmFzc2VydGlvbnMvYzJwYS5oYXNoLmRhdGFkaGFzaFggdbCWnDVVh8qlY7hR91j6jS1AvsnGWKR4FZlbI/fL53F0Y2xhaW1fZ2VuZXJhdG9yX2luZm+jZG5hbWVvQW50aHJvcGljIEZpbGVzZ3ZlcnNpb25lMS4wLjBrc3BlY1ZlcnNpb25lMi40LjAAABA4anVtYgAAAChqdW1kYzJjcwARABCAAACqADibcQNjMnBhLnNpZ25hdHVyZQAAABAIY2JvctKEWQISogEmGCFZAgowggIGMIIBjaADAgECAhRA5aAK7sI50L64g/oGQgU9Z1UTADAKBggqhkjOPQQDAzBJMRcwFQYDVQQKEw5BbnRocm9waWMsIFBCQzEuMCwGA1UEAxMlQW50aHJvcGljIENvbnRlbnQgQ3JlZGVudGlhbHMgUm9vdCBDQTAeFw0yNjA4MDcxODQzNTZaFw0yODA4MDYxOTQzNTZaMEQxFzAVBgNVBAoTDkFudGhyb3BpYywgUEJDMSkwJwYDVQQDEyBBbnRocm9waWMgQ2xhdWRlIENvbnRlbnQgU2lnbmluZzBZMBMGByqGSM49AgEGCCqGSM49AwEHA0IABJh6CmvLUBgFFNU0vUKlOVtE6djd17L5SuwX0LemFisBM3dkd/3cyjxFA3Qo5S46fX0/ihY0VZ7mfb9KF703t5OjWDBWMA4GA1UdDwEB/wQEAwIHgDAVBgNVHSUEDjAMBgorBgEEAYPoXgIBMAwGA1UdEwEB/wQCMAAwHwYDVR0jBBgwFoAUzlHiBIFOZFsj+OPEz5o+nMHXXMIwCgYIKoZIzj0EAwMDZwAwZAIwMXMdFJ4BetLLVY7ORuE9noqbbAZOZn/aArXyTwFAZfKrPzxF2vPoJNf1+UCdg1XGAjBwX1zd9WGqYkqmL5SFqw1QySjr1zJfpJM9+1rdDwSPLMOPOjKuiXjoU/pUUeG9RwmhY3BhZFkNngAAAAAAAAAAAAAAAAAAAAAAAAAAAAAAAAAAAAAAAAAAAAAAAAAAAAAAAAAAAAAAAAAAAAAAAAAAAAAAAAAAAAAAAAAAAAAAAAAAAAAAAAAAAAAAAAAAAAAAAAAAAAAAAAAAAAAAAAAAAAAAAAAAAAAAAAAAAAAAAAAAAAAAAAAAAAAAAAAAAAAAAAAAAAAAAAAAAAAAAAAAAAAAAAAAAAAAAAAAAAAAAAAAAAAAAAAAAAAAAAAAAAAAAAAAAAAAAAAAAAAAAAAAAAAAAAAAAAAAAAAAAAAAAAAAAAAAAAAAAAAAAAAAAAAAAAAAAAAAAAAAAAAAAAAAAAAAAAAAAAAAAAAAAAAAAAAAAAAAAAAAAAAAAAAAAAAAAAAAAAAAAAAAAAAAAAAAAAAAAAAAAAAAAAAAAAAAAAAAAAAAAAAAAAAAAAAAAAAAAAAAAAAAAAAAAAAAAAAAAAAAAAAAAAAAAAAAAAAAAAAAAAAAAAAAAAAAAAAAAAAAAAAAAAAAAAAAAAAAAAAAAAAAAAAAAAAAAAAAAAAAAAAAAAAAAAAAAAAAAAAAAAAAAAAAAAAAAAAAAAAAAAAAAAAAAAAAAAAAAAAAAAAAAAAAAAAAAAAAAAAAAAAAAAAAAAAAAAAAAAAAAAAAAAAAAAAAAAAAAAAAAAAAAAAAAAAAAAAAAAAAAAAAAAAAAAAAAAAAAAAAAAAAAAAAAAAAAAAAAAAAAAAAAAAAAAAAAAAAAAAAAAAAAAAAAAAAAAAAAAAAAAAAAAAAAAAAAAAAAAAAAAAAAAAAAAAAAAAAAAAAAAAAAAAAAAAAAAAAAAAAAAAAAAAAAAAAAAAAAAAAAAAAAAAAAAAAAAAAAAAAAAAAAAAAAAAAAAAAAAAAAAAAAAAAAAAAAAAAAAAAAAAAAAAAAAAAAAAAAAAAAAAAAAAAAAAAAAAAAAAAAAAAAAAAAAAAAAAAAAAAAAAAAAAAAAAAAAAAAAAAAAAAAAAAAAAAAAAAAAAAAAAAAAAAAAAAAAAAAAAAAAAAAAAAAAAAAAAAAAAAAAAAAAAAAAAAAAAAAAAAAAAAAAAAAAAAAAAAAAAAAAAAAAAAAAAAAAAAAAAAAAAAAAAAAAAAAAAAAAAAAAAAAAAAAAAAAAAAAAAAAAAAAAAAAAAAAAAAAAAAAAAAAAAAAAAAAAAAAAAAAAAAAAAAAAAAAAAAAAAAAAAAAAAAAAAAAAAAAAAAAAAAAAAAAAAAAAAAAAAAAAAAAAAAAAAAAAAAAAAAAAAAAAAAAAAAAAAAAAAAAAAAAAAAAAAAAAAAAAAAAAAAAAAAAAAAAAAAAAAAAAAAAAAAAAAAAAAAAAAAAAAAAAAAAAAAAAAAAAAAAAAAAAAAAAAAAAAAAAAAAAAAAAAAAAAAAAAAAAAAAAAAAAAAAAAAAAAAAAAAAAAAAAAAAAAAAAAAAAAAAAAAAAAAAAAAAAAAAAAAAAAAAAAAAAAAAAAAAAAAAAAAAAAAAAAAAAAAAAAAAAAAAAAAAAAAAAAAAAAAAAAAAAAAAAAAAAAAAAAAAAAAAAAAAAAAAAAAAAAAAAAAAAAAAAAAAAAAAAAAAAAAAAAAAAAAAAAAAAAAAAAAAAAAAAAAAAAAAAAAAAAAAAAAAAAAAAAAAAAAAAAAAAAAAAAAAAAAAAAAAAAAAAAAAAAAAAAAAAAAAAAAAAAAAAAAAAAAAAAAAAAAAAAAAAAAAAAAAAAAAAAAAAAAAAAAAAAAAAAAAAAAAAAAAAAAAAAAAAAAAAAAAAAAAAAAAAAAAAAAAAAAAAAAAAAAAAAAAAAAAAAAAAAAAAAAAAAAAAAAAAAAAAAAAAAAAAAAAAAAAAAAAAAAAAAAAAAAAAAAAAAAAAAAAAAAAAAAAAAAAAAAAAAAAAAAAAAAAAAAAAAAAAAAAAAAAAAAAAAAAAAAAAAAAAAAAAAAAAAAAAAAAAAAAAAAAAAAAAAAAAAAAAAAAAAAAAAAAAAAAAAAAAAAAAAAAAAAAAAAAAAAAAAAAAAAAAAAAAAAAAAAAAAAAAAAAAAAAAAAAAAAAAAAAAAAAAAAAAAAAAAAAAAAAAAAAAAAAAAAAAAAAAAAAAAAAAAAAAAAAAAAAAAAAAAAAAAAAAAAAAAAAAAAAAAAAAAAAAAAAAAAAAAAAAAAAAAAAAAAAAAAAAAAAAAAAAAAAAAAAAAAAAAAAAAAAAAAAAAAAAAAAAAAAAAAAAAAAAAAAAAAAAAAAAAAAAAAAAAAAAAAAAAAAAAAAAAAAAAAAAAAAAAAAAAAAAAAAAAAAAAAAAAAAAAAAAAAAAAAAAAAAAAAAAAAAAAAAAAAAAAAAAAAAAAAAAAAAAAAAAAAAAAAAAAAAAAAAAAAAAAAAAAAAAAAAAAAAAAAAAAAAAAAAAAAAAAAAAAAAAAAAAAAAAAAAAAAAAAAAAAAAAAAAAAAAAAAAAAAAAAAAAAAAAAAAAAAAAAAAAAAAAAAAAAAAAAAAAAAAAAAAAAAAAAAAAAAAAAAAAAAAAAAAAAAAAAAAAAAAAAAAAAAAAAAAAAAAAAAAAAAAAAAAAAAAAAAAAAAAAAAAAAAAAAAAAAAAAAAAAAAAAAAAAAAAAAAAAAAAAAAAAAAAAAAAAAAAAAAAAAAAAAAAAAAAAAAAAAAAAAAAAAAAAAAAAAAAAAAAAAAAAAAAAAAAAAAAAAAAAAAAAAAAAAAAAAAAAAAAAAAAAAAAAAAAAAAAAAAAAAAAAAAAAAAAAAAAAAAAAAAAAAAAAAAAAAAAAAAAAAAAAAAAAAAAAAAAAAAAAAAAAAAAAAAAAAAAAAAAAAAAAAAAAAAAAAAAAAAAAAAAAAAAAAAAAAAAAAAAAAAAAAAAAAAAAAAAAAAAAAAAAAAAAAAAAAAAAAAAAAAAAAAAAAAAAAAAAAAAAAAAAAAAAAAAAAAAAAAAAAAAAAAAAAAAAAAAAAAAAAAAAAAAAAAAAAAAAAAAAAAAAAAAAAAAAAAAAAAAAAAAAAAAAAAAAAAAAAAAAAAAAAAAAAAAAAAAAAAAAAAAAAAAAAAAAAAAAAAAAAAAAAAAAAAAAAAAAAAAAAAAAAAAAAAAAAAAAAAAAAAAAAAAAAAAAAAAAAAAAAAAAAAAAAAAAAAAAAAAAAAAAAAAAAAAAAAAAAAAAAAAAAAAAAAAAAAAAAAAAAAAAAAAAAAAAAAAAAAAAAAAAAAAAAAAAAAAAAAAAAAAAAAAAAAAAAAAAAAAAAAAAAAAAAAAAAAAAAAAAAAAAAAAAAAAAAAAAAAAAAAAAAAAAAAAAAAAAAAAAAAAAAAAAAAAAAAAAAAAAAAAAAAAAAAAAAAAAAAAAAAAAAAAAAAAAAAAAAAAAAAAAAAAAAAAAAAAAAAAAAAAAAAAAAAAAAAAAAAAAAAAAAAAAAAAAAAAAAAAAAAAAAAAAAAAAAAAAAAAAAAAAAAAAAAAAAAAAAAAAAAAAAAAAAAAAAAAAAAAAAAAAAAAAAAAAAAAAAAAAAAAAAAAAAAAAAAAAAAAAAAAAAAAAAAAAAAAAAAAAAAAAAAAAAAAAAAAAAAAAAAAAAAAAAAAAAAAAAAAAAAAAAAAAAAAAAAAAAAAAAAAAAAAAAAAAAAAAAAAAAAAAAAAAAAAAAAAAAAAAAAAAAAAAAAAAAAAAAAAAAAAAAAAAAAAAAAAAAAAAAAAAAAAAAAAAAAAAAAAAAAAAAAAAAAAAAAAAAAAAAAAAAAAAAAAAAAAAAAAAAAAAAAAAAAAAAAAAAAAAAAAAAAAAAAAAAAAAAAAAAAAAAAAAAAAAAAAAAAAAAAAAAAAAAAAAAAAAAAAAAAAAAAAAAAAAAAAAAAAAAAAAAAAAAAAAAAAAAAAAAAAAAAAAAAAAAAAAAAAAAAAAAAAAAAAAAAAAAAAAAAAAAAAAAAAAAAAAAAAAAAAAAAAAAAAAAAAAAAAAAAAAAAAAAAAAAAAAAAAAAAAAAAAAAAAAAAAAAAAAAAAAAAAAAAAAAAAAAAAAAAAAAAAAAAAAAAAAAAAAAAAAAAAAAAAAAAAAAAAAAAAAAAAAAAAAAAAAAAAAAAAAAAAAAAAAAAAAAAAAAAAAAAAAAAAAAAAAAAAAAAAAAAAAAAAAAAAAAAAAAAAAAAAAAAAAAAAAAAAAAAAAAAAAAAAAAAAAAAAAAAAAAAAAAAAAAAAAAAAAAAAAAAAAAAAAAAAAAAAAAAAAAAAAAAAAAAAAAAAAAAAAAAAAAAAAAAAAAAAAAAAAAAAAAAAAAAAAAAAAAAAAAAAAAAAAAAAAAAAAAAAAAAAAAAAAAAAAAAAAAAAAAAAAAAAAAAAAAAAAAAAAAAAAAAAAAAAAAAAAAAAAAAAAAAAAAAAAAAAAAAAAAAAAAAAAAAAAAAAAAAAAAAAAAAAAAAAAAAAAAAAAAAAAAAAAAAAAAAAAAAAAAAAAAAAAAAAAAAAAAAAAAAAAAAAAAAAAAAAAAAAAAAAAAAAAAAAAAAAAAAAAAAAAAAAAAAAAAAAAAAAAAAAAAAAAAAAAAAAAAAAAAAAAAAAAAAAAAAAAAAAAAAAAAAAAAAAAAAAAAAAAAAAAAAAAAAAAAAAAAAAAAAAAAAAAAAAAAAAAAAAAAAAAAAAAAAAAAAAAAAAAAAAAAAAAAAAAAAAAAAAAAAAAAAAAAAAAAAAAAAAPZYQHHwIyoZfwtP/iyvr7hbbJpG1pcic6AhcdlK9XiD894Hgu2HrKQxgmLtJY2/423tTBmCR/UpTWTBkHUwRX91Ico=</c2pa:manifest></metadata><circle cx="32" cy="32" r="32" fill="#A86478"/><svg x="11" y="11" width="42" height="42" viewBox="639.2 -9.6 1116.5 1558" preserveAspectRatio="xMidYMid meet"><path fill="#FAF6F7" d="m1408 21-32 4c-22 1-22 1-37 5l-11 2-12 2-9 3h-6l-9 3-8 3q-9 1-13 4l-6 2-9 2-2 1-6 3c-1-1-8 1-12 4l-6 2c-1 0-9 2-14 5l-3 1-5 3-7 2-6 4-5 2-7 3-2 2-6 1-3 2-4 3h-3l-6 4q-3 3-5 3l-6 3-6 3-7 3-5 3-9 6-9 6q-1-1-4 2-10 8-14 9l-3 2-14 10-12 9-7 5q-4 1-12 9l-22 19a691 691 0 0 0-135 160l-12 23-6 9-1 2q0 3-3 2-5-1-6-5l-3-3-2-3-2-4c-3-2-10-12-10-14l-2-3-5-8q1-2-2-4l-4-7-2-4-3-6-4-9q-3-4-2-6l-2-5q-4-6-5-13l-2-8c-2-6-4-14-3-15l-1-4a235 235 0 0 1 10-120q3-1 2-6l4-9 4-8 2-5 5-9 6-9 6-10 8-10 9-12c4-7 4-8 3-12q0-4-3-4l-14 4-4 4c-6 6-14 14-14 16l-2 2-3 3-2 3-16 21-6 9-6 9-3 5-3 6q1 2-2 6l-3 6-2 6q-3 4-4 9l-3 8q-3 5-3 10l-3 11-2 12-3 16c-1 11-1 33 1 46l2 14 1 10c2 2 4 10 4 12q-1 3 3 12l4 10 3 9 2 6 2 4q3 0 4 6l2 6 3 3 1 3 1 3q0 3 2 3l3 5 4 7 1 2 3 4 4 5 2 4 9 10 15 18c5 6 5 9 1 18l-4 9-3 6-3 6-3 9-3 8-2 5-3 7-3 9-4 9-2 9q-3 6-3 10l-4 12-3 11-3 12-3 12-2 11-2 11-3 20q-3 10-3 24l-3 37v31l2 22c0 20 1 25 4 36l2 14 2 14 4 13q1 14 3 14l4 15 1 2q2 1 3 8l2 5 4 9 4 9 2 5 4 7 3 6 2 4 3 3 4 6 2 3c-1 2 2 7 3 7l4 6 8 10 3 5a484 484 0 0 0 59 53l9 6 4 2a262 262 0 0 0 48 21l5 2q4 3 16 4l15 3 13 2 15 2a261 261 0 0 0 69-1c13 0 19-1 27-3l16-3 26-6 13-4 11-3 5-1 5-3 5-1 2-1q1 1 4-1l8-3 9-4 8-2 6-3 7-3 4-3 7-3 6-3 6-2 9-4 3-2 3-1 2-1 6-3 7-3 2-2 2-1 7-4 6-4q1 1 6-3l5-3 5-2 13-9h2l4-4 6-3q2 1 3-1l15-10 9-6 9-7q2 0 10-7l14-9 3-2 4-5 9-7 11-8 16-13q9-10 11-10l2 2q2 4-4 19l-2 8-4 12-3 12c0 3-2 10-4 12l-1 8-3 9-2 8-3 9-4 13-3 7-1 3-4 14-4 11-3 6q-3 4-3 7l-2 5-3 8-4 8-3 7q0 4-3 7l-2 5-2 5-3 7-11 22a480 480 0 0 1-42 80l-4 7-2 3-3 1-2 1-50 2-66 5-31 1a1181 1181 0 0 0-390 97l-6 3-6 3q-4 4-6 3l-5 3-6 3c-1 1-10 5-12 8l-29 18-7 6c-14 10-18 14-26 22l-15 17-13 16-2 4-2 5-4 7-3 6q-2 3-5 26v16q3 23 5 23l3 6 3 6 8 8c5 7 20 19 23 19l2 3 2 1 8 5 4 2 10 3 8 3 9 3 9 3 15 2c16 3 19 3 54 3a231 231 0 0 0 60-5c12-1 15-1 21-4l15-3 7-2 9-3 16-3 8-3 8-2c4-2 5-3 11-3l5-2 9-3 22-8 5-3 7-2 6-3 5-3q2 1 6-2l7-4 12-4q4-3 5-2l4-2q6-5 8-4 0 2 5-3l6-3 7-3q5-4 6-3l2-1 9-6q5 1 4-2l2-1 5-3 6-3 7-4 6-4 6-3 9-6 9-6 5-3q3 0 13-8l4-3 13-8 11-8 7-5 9-7 6-4q19-17 27-21a1598 1598 0 0 0 96-98l10-12 8-12 9-11c8-8 9-9 12-9l29 1 162 9 15 2 47 7 7 1 6 2 6 1 13 3c5 1 20 2 24 1q4-2 3-9-4-10-12-12l-5-1c-2-2-11-5-14-5l-9-2-16-4-14-2c-4-2-4-2-17-3l-23-4a795 795 0 0 0-140-14h-27q-18 0-19-2l-3-3 10-16 3-6 3-6 5-8 7-11 2-5 3-5 3-4v-2l1-2 2-3q5-4 14-24l4-7 3-5 3-6 3-6 3-6 4-7 2-5 3-5 4-7 3-6 2-6q2-1 3-5l4-6 3-6 2-6 3-5 3-6 3-7 2-6q2-1 3-6l3-6c1-1 8-16 10-24l3-6 2-5 4-12 2-6 3-10 4-12 3-8 1-4 5-16 2-8 2-12 4-24 3-13 2-14 3-17a120 120 0 0 0-2-34l-3-6-3-6-3-3-2-2-3-3-3-3-4-2-9-3q-9-3-19 0l-8 2-6 3-6 3-4 2-5 4-12 11-9 8-1 1-4 6a172 172 0 0 0-27 43l-4 6-1 3-3 7-3 6-3 6-3 6-3 6-3 5a282 282 0 0 1-59 61q1 2-2 2l-6 3-12 9-14 10-4 2-5 3-13 7-7 5-4 2-7 4-6 2-6 4q-3 3-5 2l-5 2-9 5-10 3q-4 3-7 3l-4 2q-4 4-7 3l-2 1-15 5-14 5-6 1-9 3-14 3-12 3c-9 3-10 3-37 5a318 318 0 0 1-103-4l-13-4q-6-1-11-4l-6-2q-3 0-7-3l-5-2-7-3q-3-3-5-3l-6-4-5-3q-5-1-20-16l-4-2-2-2-5-4q-3-1-3-3l-1-2q-3 0-4-3 0-2-3-3l-2-3-2-4-7-7-4-6-2-4-2-3-3-5q-3-2-4-7l-3-6-2-5-4-9-3-9-3-6-3-8-3-12-4-18-1-9-4-25-1-12a503 503 0 0 1 42-239q1-8 4-8l1-1q1-6 7-20 5-11 8-9l4 2 3 2 7 3a279 279 0 0 0 47 24q4 3 5 2l6 3q7 4 13 4l4 2 4 2 20 7c1 0 11 3 13 5l5 1 9 3 9 3c6 0 8 1 14 3l16 3 6 1q8 3 24 5a767 767 0 0 0 112 9 582 582 0 0 0 127-10l21-3 13-2 9-2 13-4q6 0 14-4l9-2 8-3 9-3 5-1q7-5 15-6l5-1 4-3 4-1h3l3-2c2-2 8-5 9-4l6-3q2-3 6-2l5-3 7-3 6-3q4-4 6-3l5-4q4-3 6-2l5-2c4-4 12-9 13-9l4-2c2-3 13-10 14-10l14-12 12-9a315 315 0 0 0 68-83l10-20 2-4 3-6 2-9 4-8 2-12q3-7 3-14l2-10a332 332 0 0 0-8-95q0-5-3-11l-2-6-2-5-3-8-4-6-2-5-4-6-3-5-2-4-3-3-4-6-4-6-1-1c-2 1-5-4-5-5q1-1-1-1-4 0-4-4l-2-3-4-3-26-19-7-5-5-3-6-3-6-3-5-2-7-3-6-3-4-2-14-5-9-3-9-2-11-3-11-2-11-3a598 598 0 0 0-119-5m80 30 23 4 16 4 8 2q5 0 9 3l9 3 9 4q3 2 5 1l6 4 6 3q2-1 11 7l7 4a202 202 0 0 1 53 56c3 3 10 17 10 19l2 5 3 6 2 11c3 8 4 18 4 43 0 17 0 21-4 34l-4 19-5 12-2 5-2 4q0 4-3 7l-3 7-5 6-2 5-2 2-1 2-5 7-4 7-3 3-2 3a701 701 0 0 1-74 68l-10 6-8 6-5 3-7 4-3 2-2 1-7 4-6 3-6 3-6 3-6 3-5 2-6 3-9 4-9 4-6 2-5 2q-5 4-7 3l-9 4-8 3-11 3-7 3h-6l-5 2-16 5-9 1q-4 3-12 3l-15 4c-6 1-7 2-16 2l-15 3-12 2-4 1h-4l-10 1-20 1a890 890 0 0 1-116-5l-22-3-16-3-26-7-14-4-13-4-4-1-9-4-10-4-4-2-8-4-3-1a239 239 0 0 1-48-26l-7-4-7-4q-9-6-8-9l3-7 14-25 6-11 5-7 4-6 6-10 5-9 3-4c3-2 11-14 11-15l7-10 9-12 8-11 12-15q0-2 11-13l22-26 2-2 29-31a382 382 0 0 1 52-47q10-9 14-10l11-9 12-9 9-6 9-6q1 1 5-2 12-10 13-9l6-4 6-4h2a454 454 0 0 1 91-41l13-5c1 1 9-1 12-3l9-2 6-1 4-1 8-2 14-2 10-2 9-1 14-1c6-2 40-2 58 0m-156 1141 4 2-6 8-15 19-19 23-18 20a233 233 0 0 1-37 36q-14 14-29 24l-18 15-4 3q-4 0-15 11l-3 2-17 11-7 5-5 3-10 7-9 6-5 3q-1-1-3 1l-3 1-1 1-4 2-11 7-8 4-5 3q-5 4-7 3l-5 3-6 3-6 3-9 4-3 2q-3 3-7 3l-9 4-8 4-6 2c0 1-5 3-6 2l-5 2-9 4-10 4-5 2-8 3-11 3-9 3q-6 3-10 3l-9 3-7 3h-6l-9 3-10 2a69 69 0 0 0-23 5l-9 1-20 2-26 2a150 150 0 0 1-50-9c-2 1-8-3-8-4l-3-2-4-4-2-2q-4 1-4-3l-1-2c-1 0-6-8-9-15-2-5-2-7-2-18q1-13 3-18l3-10c2-6 7-14 10-16l2-4q1-4 13-16l25-22 12-9q9-9 13-9l3-1c1-3 12-11 14-11l3-1 7-5 5-4h2l6-3 7-3 4-3 7-4 6-3 5-2 3-1 3-3c4-2 3-2 7-2l6-4 6-2 6-3 6-4q6 0 11-4l5-2q2 1 5-1c4-3 13-6 15-6l3-1c1-2 7-4 8-4l4-1 14-5 6-2 11-4 6-2 12-4 9-2 8-3 12-3c0-1 8-3 15-3l15-4 7-2h8l48-8 52-5a1620 1620 0 0 1 128-7"/></svg></svg>
